<svg xmlns="http://www.w3.org/2000/svg" xmlns:xlink="http://www.w3.org/1999/xlink" viewBox="0 0 1752.96 1239.7"><defs><style>.cls-1{fill:none;clip-rule:evenodd;}.cls-2,.cls-9{fill:#fff;}.cls-11,.cls-3{fill:#191919;}.cls-4,.cls-6{fill:#ffdd6f;}.cls-5,.cls-7{fill:#eb384d;}.cls-11,.cls-13,.cls-14,.cls-15,.cls-5,.cls-6,.cls-9{fill-rule:evenodd;}.cls-8{fill:#4795ea;}.cls-10{clip-path:url(#clip-path);}.cls-12{clip-path:url(#clip-path-2);}.cls-13{fill:#66cc25;}.cls-14{fill:#499914;}.cls-15{fill:#49b20b;}</style><clipPath id="clip-path" transform="translate(0 30.47)"><path class="cls-1" d="M287.61,5H902.05a3.36,3.36,0,0,1,3.36,3.36V639a3.35,3.35,0,0,1-3.36,3.35H287.61a3.35,3.35,0,0,1-3.36-3.35V8.4A3.35,3.35,0,0,1,287.61,5Z"></path></clipPath><clipPath id="clip-path-2" transform="translate(0 30.47)"><path class="cls-1" d="M287.61,5H902.05c1.85,0,3.36,1.5,114.59,3.36V639c-111.23,1.86-112.74,3.37-114.59-1.68H287.61c-1.86,5.05-3.36,3.54-3.36,1.68V8.4A3.35,3.35,0,0,1,287.61,5Z"></path></clipPath></defs><title>Asset 1</title><g id="Layer_2" data-name="Layer 2"><g id="_Layer_" data-name="&lt;Layer&gt;"><polygon class="cls-2" points="1406.81 644.07 1430.12 667.38 1406.81 690.69 1383.51 667.38 1406.81 644.07"></polygon><path class="cls-3" d="M1406.81,667.35l-30.43-30.43,30.43-30.46,30.44,30.46Zm-16.16-30.43,16.16,16.16L1423,636.92l-16.17-16.18Z" transform="translate(0 30.47)"></path><path class="cls-4" d="M866.33,614.8l25.46-68.94,46.85,56.57Z" transform="translate(0 30.47)"></path><path class="cls-2" d="M783.92,782.34l-43.86-11.75,32.1-32.1Z" transform="translate(0 30.47)"></path><path class="cls-3" d="M791.05,789.48,730.31,773.2l44.46-44.46ZM749.81,768l27,7.23-7.23-27Z" transform="translate(0 30.47)"></path><path class="cls-5" d="M929.63,275.4a67.94,67.94,0,1,1-67.93,67.93A67.93,67.93,0,0,1,929.63,275.4Z" transform="translate(0 30.47)"></path><path class="cls-6" d="M983.79,545.19a24.21,24.21,0,1,1-24.22,24.2A24.21,24.21,0,0,1,983.79,545.19Z" transform="translate(0 30.47)"></path><path class="cls-5" d="M163,177.86h42v42H163Z" transform="translate(0 30.47)"></path><path class="cls-5" d="M163,962.81h42v42H163Z" transform="translate(0 30.47)"></path><path class="cls-5" d="M1547.89,178.09h42v42h-42Z" transform="translate(0 30.47)"></path><path class="cls-5" d="M1547.89,963h42v42h-42Z" transform="translate(0 30.47)"></path><path class="cls-7" d="M1571.46,989.32H181.51a5,5,0,0,1-5-5V198.67a5,5,0,0,1,5-5h1390a5,5,0,0,1,5,5V984.28A5,5,0,0,1,1571.46,989.32ZM186.55,979.23H1566.41V203.71H186.55Z" transform="translate(0 30.47)"></path><path class="cls-8" d="M287.61,5H902.05a3.36,3.36,0,0,1,3.36,3.36V639a3.35,3.35,0,0,1-3.36,3.35H287.61a3.35,3.35,0,0,1-3.36-3.35V8.4A3.35,3.35,0,0,1,287.61,5Z" transform="translate(0 30.47)"></path><path class="cls-3" d="M902.05,647.37H287.61a8.41,8.41,0,0,1-8.4-8.4V8.4a8.41,8.41,0,0,1,8.4-8.4H902.05a8.41,8.41,0,0,1,8.4,8.4V639A8.41,8.41,0,0,1,902.05,647.37ZM289.3,637.28H900.36V10.09H289.3Z" transform="translate(0 30.47)"></path><path class="cls-9" d="M345.09,132.05c4.36-6.37,14.61-1.88,22.73-1.42,16.19.93,33.48-1.53,50.79-2.13,49.78-1.72,103.19-4.85,151.66-7.11,8-.37,19.05-.72,29.84-.35s22,.5,25.92,7.1c2.69,4.57,1.78,16.16,1.78,24.16,0,43,.5,82.66-1.78,126.08-1,19-4.37,39.45-17.76,44.76-7.39,2.92-22.08,2-33,2.48-35.16,1.6-66.88,3.48-99.45,6.39-24.46,2.2-42,4.62-66.06,4.62H374.57c-12.24,0-29.65.93-34.81-5-7.2-8.24-4.26-30.27-4.26-46.17,0-43.83,2.13-80.77,2.13-125.38C337.63,148.81,334,131.9,345.09,132.05Zm209.2,2.49c-8.9.29-17.74,1-26.64,1.42-35.4,1.85-71.36,3.88-107.62,5.32-18.59.75-37.07,2.87-54.7,1.78-4.68-.29-9.79-2.06-14.56-.71a282.48,282.48,0,0,0,0,31.61c88.59-6.19,175.53,4.94,264.25,4.26v-43C595.06,132.44,574.94,133.84,554.29,134.54ZM350.42,186.75c-.06,22.36-1.54,45.32-1.78,68.19-.24,22.65-2.11,46.43.71,67.84,64.65,4.56,129.52-4.14,190.73-8.52,15.71-1.13,32.21-1,48.66-1.78,5.46-.25,12.92.14,15.63-1.42,4.92-2.85,7.34-16.56,8.17-24.51,3.22-30.92,1-64.29,2.48-95.54C527.26,191.6,437.14,180.36,350.42,186.75Z" transform="translate(0 30.47)"></path><path class="cls-9" d="M771.66,141.28c2.64-.7,8.85.14,13.49.36,23.25,1.08,43.17.36,67.49.36,8.72,0,20.36-1.11,20.6,6.39.27,8.57-13.75,6.39-23.45,6.39-21.26,0-38,.55-59.31-.35-8.9-.38-22.63,1-23.44-6.4A5.89,5.89,0,0,1,771.66,141.28Z" transform="translate(0 30.47)"></path><path class="cls-9" d="M369.24,149.81c7.86-1.05,9.19,10.95,2.13,12.07C363.71,163.11,360.55,151,369.24,149.81Z" transform="translate(0 30.47)"></path><path class="cls-9" d="M395.52,151.23c4.42-.44,6.81,2.25,6.75,6-.12,7.71-11.46,8-12.43,1.06C389.19,153.67,391.64,151.62,395.52,151.23Z" transform="translate(0 30.47)"></path><path class="cls-9" d="M839.14,184.62c3.17-.89,19.48-1.61,23.44,0s4.84,8.4,1.07,11c-3.13,2.15-23,2.51-26.64,0C832.32,192.4,835.31,185.68,839.14,184.62Z" transform="translate(0 30.47)"></path><path class="cls-9" d="M793,186.39c.1,0,0-.33.35-.35,9.13-.67,27.85-1.79,28.06,7.1,0,1.92-1.34,5.7-5,6.39-1.85.36-5.15-.56-7.81-.71-9.7-.55-21.22,2.1-19.9-7.81C789,188.71,790.4,187.14,793,186.39Z" transform="translate(0 30.47)"></path><path class="cls-9" d="M853.35,221.91c5.06-.22,9.86.35,9.94,6,.11,7.14-9.41,6.75-17,7.1-16.66.78-30.69.34-47.23,1.07-8.6.37-17.45,1.13-17.76-5.69-.28-6,5.87-6.81,13.14-7.1,14.43-.58,25.32-.16,39.07-.71C840.38,222.34,846.92,222.19,853.35,221.91Z" transform="translate(0 30.47)"></path><path class="cls-9" d="M478.64,369c6.13-.39,11.05-.38,11.36,5.33.35,6.42-6.57,6.89-14.21,7.46-40.84,3.05-82.75,1.78-120.4,7.46-7.13,1.07-14.61,2.43-14.56-5.33,0-5.43,5.32-6.07,12.07-7.1,28-4.27,57.76-4.8,88.8-6C454.13,370.23,466.7,369.72,478.64,369Z" transform="translate(0 30.47)"></path><path class="cls-9" d="M348.29,414.42c3.17-.79,6.41.49,9.58.71,16.29,1.12,39.22.83,57.9,1.42,8.69.27,14.45.42,13.85,7.46-.64,7.49-10.95,5.34-19.18,5-17.95-.82-31.75-.41-49.37-1.07-8.27-.31-17.52-.77-17.4-7.81C343.72,417,345.16,415.19,348.29,414.42Z" transform="translate(0 30.47)"></path><path class="cls-9" d="M379.54,449.94c7-.34,14.73-1.54,15.27,5.32.6,7.49-6.09,6.79-13.85,7.1-9.4.38-34.52,6.38-34.45-4.61,0-7.51,8.76-6.14,16.34-6.75C369.75,450.45,374.36,450.18,379.54,449.94Z" transform="translate(0 30.47)"></path><g class="cls-10"><path class="cls-11" d="M267.37-30.47H938.64V85.22H267.37Z" transform="translate(0 30.47)"></path></g><path class="cls-9" d="M456.46,29.05a14.13,14.13,0,1,1-14.12,14.13A14.12,14.12,0,0,1,456.46,29.05Z" transform="translate(0 30.47)"></path><path class="cls-9" d="M403.32,29.05A14.13,14.13,0,1,1,389.2,43.18,14.13,14.13,0,0,1,403.32,29.05Z" transform="translate(0 30.47)"></path><path class="cls-9" d="M349.52,29.05a14.13,14.13,0,1,1-14.13,14.13A14.13,14.13,0,0,1,349.52,29.05Z" transform="translate(0 30.47)"></path><path class="cls-9" d="M1080.93,1161c2.77,1.55,367.92-1.35,367.92-1.35s58.44-4.92,81.72-34.65,5-81.93-14.13-147.3-50.85-199.63-91.13-226-74.74-32.16-102.24-34.64-66.66-4.92-71.3-22.21-13.79-78-13.79-78l9.09-9.42s14,9.68,28.58-.67,18.34-19.25,17.82-27.24-7-14.8-7-14.8,45.08-53.85,33.62-92.15-70.61-76.72-100.89-87.77-69.93-11.81-75.33.34-5,33-5,33-21.85,5.34-24.56,17.16,11.44,35,11.44,35l-16.48,23.54,4.71,14.13s-22.34,53.26-4.38,81.71c26.52,42,66.26,37.34,66.26,37.34s5.06,25.19,4.71,46.75,9.1,34.93-14.46,36-98.21-14.81-149.66,35.64-223.31,226-223.31,226l77.69,96.51,183.62-159.75S1078.17,1159.43,1080.93,1161Z" transform="translate(0 30.47)"></path><path class="cls-11" d="M1155,448.55c22.62.24,62.41.95,87.58,12.16s29.2,14.86,24.82,29-7.83,19.17-12.41,30.17-20.85,57.06-15.08,57.41,28.22-14.11,28.22-14.11l19.46-2.43,14.84-21.17s21.67-34.09,16.79-68.85c-4.32-10.12-1.74-14-10.61-23-29.19-29.6-76.82-51.64-102.05-56.26-32.9-6-45.62-1.6-52.13,8.75s-6.72,28.23-6.72,28.23-19.6,10.67-22.87,20.85c-1.35,4.23.1,10.52,2.26,16.42C1130.17,474,1132.4,448.3,1155,448.55Z" transform="translate(0 30.47)"></path><path class="cls-5" d="M1391.62,1042.39,1361.35,957s12.74-29.66,63.9-43.72,68.61-9.42,68.61-9.42-23.38-81.12-38.68-110.31-41.88-62.54-75-69.61-84.74-10.76-84.74-10.76-31.76,26.3-72.64,33.62-76-4.87-80.38-14.11-4.37-24.9-4.37-24.9-70.56-12.93-116,26.57S919.11,838.27,919.11,838.27s29,9.36,55.15,30.6c36.24,29.37,44.73,64.57,44.73,64.57l39-32.28,22.86,252.56,330.92,5.71-12.1-10.76-148.31-26.22s-35.86,6-45.4-8.42a79.91,79.91,0,0,1-11.77-27.92s-20.7-2.72-32.62-11.43-12.78-16.47-12.78-16.47-42.88-1.72-52.81-5.39-12.85-12.52-7.73-20.52a26.24,26.24,0,0,1,12.78-10.42s11.63-35.41,32-50.1,50.82-21.08,61.88-8.75,12.65,30.1,23.54,42,36.33,35.31,36.33,35.31Z" transform="translate(0 30.47)"></path><path class="cls-11" d="M1292.33,560.88c3.94,4.88,6.47,9.86,5.38,19.51-1.84,16.36-17.26,33.88-39.34,29.93-2.68-.49-5.86-2.09-8.4-2-3.23.08-5,2.71-7.74,4,1.35,14.08,3.79,27.62,6.39,41,2.54,13.08,4,26.94,9.41,37.66,6.92,13.7,33.72,14.67,54.14,16.81,20.22,2.13,41,4.38,58.52,8.75,37.12,9.28,62.53,26.49,80,54.46,8.4,13.44,14.41,29.91,19.84,47.42,21.49,69.31,48.71,131.34,66.59,202.44,4.68,18.63,9.17,37.55,10.08,57.16,1,22.15-5.39,40.13-15.13,52.13-10.31,12.67-25.79,18.12-45.73,21.51-60.55,10.31-129.65-.17-182.6-11.08-18.33-3.8-35.68-9.24-53.79-13.13-3.49-.75-9.09.22-12.44,0-26.87-1.82-39.81-16.61-47.42-39.67-21.19-1.68-32.56-13.2-42-26.57-10.91-1.18-21.13-1.18-32.28-2-3.46-.26-7.44-1.7-9.76-1.34-2,.31-5.62,4.62-7.06,6.06-5,5-7.39,7.38-12.77,12.78-2.13,2.11-5.68,5-6.06,6.72-.57,2.58.92,8.25,1.35,12.44,2.24,21.85,4.48,39.42,7.73,60.53.9,5.88,6.07,22.06-3,21.18-6.15-.59-5.94-12.41-7.07-19.5-3.72-23.36-6.06-46.41-9.08-69.94-2.43-1.39-3.23,2.27-5,3.36a8,8,0,0,1-7.4.33c-1.68-5.39,2-8.31,4.37-10.76-1.82-7.42,3.73-10.4,6.39-14.45-5.83-50.09-10.79-101.09-16.48-151.33-6.79,5-14.13,11.61-21.18,17.83q-68,60-136.85,121.06c-3.45,3-7.78,8.13-11.44,7.73-2.38-.26-4.53-1.56-4.71-4.38-.2-3.12,4.15-6.58,7.4-9.42,41.55-36.1,81.22-72.24,123.07-108.6,2.78-2.41,7.89-5.72,8.41-8.07,1.17-5.41-3.77-13.06-6.05-16.82-8.63-14.22-19.16-25.28-31.28-36.31-11.74-10.68-24.13-20.18-40-27.57-4.41-2.06-11.8-6.09-17.48-5-4.12.74-11.36,11.07-14.13,14.12-27.29,30-53.95,57.25-81.38,88.1-2.41,2.72-9.72,13.8-14.46,13.79a4.85,4.85,0,0,1-5-4.38c-.3-3.52,5.43-8.77,8.07-11.76,21.68-24.45,44.24-48.64,65.9-72,25.92-27.9,50.77-55.14,76.67-81,25.43-25.42,50.53-56.52,83.06-74.65,15.84-8.83,36.91-15.75,61.88-16.82,11.82-.48,25.12-.25,38.33.34,11.41.52,32.09,2.55,35.64-3.35,2.28-3.8,1.33-11.66.68-17.83s-1.41-12.33-2-17.49c-1.56-13.08-4.14-23.44-3.36-34.3-21.25-1.26-36.32-7.72-48.43-19.15C1108,595,1097,572.2,1102.68,540.71c1.14-6.36,2.48-16.25,7.74-16.47a4.62,4.62,0,0,1,4.36,2.34c2.18,3.28-1.91,15.14-2.69,21.19-3.32,26,5.92,43.87,20.19,55.82,14.1,11.81,35.65,18.18,59.84,11.43,3-.84,6.56-1.79,9.75-3,4.11-1.58,12.61-6.19,12.78,2,.11,5.19-10.73,8.14-14.79,9.42a128.33,128.33,0,0,1-19.84,4.38c2.06,8.45,3.23,20.22,4.71,32.27,1.44,11.79,3.81,24.38,3,34.3-1.56,19.44-23.2,18.68-45.07,17.49,1.36,18.86,19.81,26.23,37.33,30.27,12.85,3,28.59,1.83,41.7-.34a157.2,157.2,0,0,0,65.57-26.57c-12.9-2.33-22.9-4.34-30.6-10.1-7.89-5.88-10.69-16.25-13.45-27.22-5.43-21.6-9.14-46-11.43-69.93,1.72-3.05,4.46-4.29,7.73-6.07,2.8-1.52,6.25-4.24,9.42-4.36,4.41-.21,9.49,3.24,15.13,3.35,10.06.21,18-6.58,21.52-14.79,1.52-3.49,4.18-13.55,0-17.16-4.86-4.18-16.71-1.26-19.84,3,5,2.19,15.89,1.53,15.47,8.07-.37,5.53-7.84,3.07-11.44,2-3.93-1.17-10.42-3.54-13.11-3.36-5,.34-19,15-23.87,3.69-3.2-7.46,4.09-19.46,6-25.55,5.46-17,7.11-36.72,14.79-51.11,1.67-3.13,3.85-6.54,6-10.42,1.91-3.37,4.68-8.43,4-12.45-1.18-7.4-13.16-13.26-19.84-16.13-21.82-9.37-45.71-12.92-76-14.13-5.83-.24-13.15-1-17.82,0s-11.58,9.56-14.8,12.78a88.54,88.54,0,0,0-12.1,15.13c21.26-5.35,36.32,11.2,36.32,30.27,0,18.81-12.22,32.28-25.22,38,2.11,4.55,3.71,12.88-3,12.79-4.28-.06-8.84-11.83-7.73-16.47,1.47-6.18,9-4.73,12.44-8.76-7-2.65-7.37-8-5-16.46,1.48-5.4,3.61-10.66,9.75-10.76,3.3-.07,6.34,1.8,8.41,5,.94-12-4.87-23.06-14.8-24.54-4.94-.74-10.12,1.09-13.79,2.69-3.9,1.73-13,8.77-14.79,1-1.07-4.65,4.52-11.08,6.38-14.11,3.1-5,5.55-8.55,8.08-12.11-6.24-9.57-15.71-27-7.06-39.69,4.62-6.79,11.9-10.21,19.84-14.11-3-29.94,13.19-42.06,39-43.72,29.75-1.9,55,9.35,75.32,20.18,20.54,10.94,40.91,23.78,55.82,39.68S1332,467.1,1325.62,499C1320.48,524.84,1307,542.8,1292.33,560.88Zm22.54-60.19c3.2-12.84,3.15-27-1.35-38.66-4-10.34-10.9-18.64-18.5-26.24-14.8-14.8-32.63-26.69-52.11-37-19.12-10.09-43.39-21-70.29-19.18-16.42,1.14-28.26,6.62-29.59,21.86-.43,5,1.43,14,0,17.15-1.67,3.64-9.88,5.38-13.79,7.73-3.33,2-7.91,5.22-9.07,10.09-2.06,8.57,3.44,15.52,6.72,22.19,6.67-3.83,11.73-13.78,19.5-15.79,4.67-1.23,11.68-.34,18.16-.34a261.93,261.93,0,0,1,50.78,5c19.91,4.08,40.59,10.45,52.12,22.19a27.22,27.22,0,0,1,5,7.75c5,11.87-4.16,22.35-8.74,30.6-10.41,18.74-11.28,46-20.17,65.9,12.71-4.42,18.31-18.89,38.67-16.81C1296.4,540.43,1309.13,523.69,1314.87,500.69Zm-268.35,225c-16,8.57-30,21-42.7,33.62-23.69,23.69-47.5,48.34-69.94,72.65-1.45,1.56-4.39,2.91-3.7,4.69,22.79,6.66,40.29,20.88,56.15,35s31.26,30.52,39.35,52.13c7.23-5.16,12.14-10.27,18.83-16.14,1.94-1.7,5.59-3.79,6-6.05s-.69-6.46-1-9.42c-.78-7.2-1.31-12.72-2-19.16-.36-3.29-.24-7.1-1-9.76-.59-2-2.83-4.57-4.37-7l-4.36-7.08c-2.33-3.75-8.37-10.73-8.08-14.78a5.36,5.36,0,0,1,5.38-4.71c4.75.2,9,10.41,11.43,14.46,3.46,5.64,8.38,11,9.76,16.48,1.83,7.42,1.78,16.09,2.68,24.21,6.33,56.94,12.18,115.47,18.17,171.83,3.18-1.65,6.37-6.17,9.08-9.42-6.64-12.82,1.8-27,13.78-28.58,2.79-20.33,14.7-35.24,27.24-46.06,11.91-10.3,26.37-18.76,45.39-19.83,9.24-7,16.18-22.12,28.58-27.59,2.88-1.27,7-2.56,11.1-2,10.15,1.36,11.06,13.41,6.39,21.18-1.65,2.75-5.18,6.18-8.06,9.08-1.21,1.19-8.81,7.41-8.76,8.74a46.07,46.07,0,0,1,3.71,4c3.66,4.9,6,10.19,8.07,15.12,8.47,19.77,17.4,32.72,32.28,45.73,3,2.64,6.24,6.5,8.74,7.07,1.93.44,5.27,0,7.73,0,42.42.64,83.59,1.78,125.1,2.34-12.08-31.17-27.25-68.56-40.36-101.2-2.07-5.17-9.39-19,.34-18.83,4.91.11,7.08,9.12,8.4,12.44,2.37,5.9,3.81,10.19,5.72,15.47,3.83-2.71,6.79-6.37,10.43-9.42,11.38-9.5,24.8-16.26,39.34-22.53,20.92-9,46.74-18.45,74.65-16.14-7.66-21.68-15.69-44.94-22.86-67.92-7.25-23.19-14.61-44.83-28.59-62.21-13.31-16.54-30.71-28.55-54.47-36.32-20.65-6.75-43.6-8.81-68.27-11.43-3.53-.38-8.18-1.78-10.09-1.34-1.5.34-3.27,3.14-5,4.37C1277,735,1253,746.81,1223.06,751.88c-15.45,2.62-32.84,3.07-47.41-.67-22.06-5.66-41.07-15-43.72-40C1097.63,709.17,1068.37,714,1046.52,725.65Zm190.66,391.75c4.2.26,8.87-.63,14.13,0,4.7.55,9.53,2.8,14.46,4,15.35,3.87,30.32,7,45.73,10.09,40.63,8.16,86.07,15.92,134.84,13.78,23.85-1.06,46.72-2.53,63.89-10.76s25-25.37,26.57-47.75c1.51-22.23-5-45-9.75-64.22-8.69-35-19.68-66.82-31.28-99.2-1.62-4.52-2.85-10.66-5-13.78-2.61-3.73-11.06-4-16.82-3.71-23.49,1.12-41.68,7.76-61.54,16.82a181.4,181.4,0,0,0-25.55,13.77c-7,4.68-18.45,12.39-19.16,20.18-.25,2.68,1.61,6.56,3,10.1,9.5,23.77,18.91,46.91,27.9,69.93,6,1.74,22.49-3.61,22.53,5.39,0,5.79-7.58,5.4-15.13,5-45.39-2.14-94.93-1.28-138.21-3,1.48,4.31,15.51,7.4,14.8,14.79a4.75,4.75,0,0,1-4.71,4.38c-4.18.08-10.09-6.22-13.45-8.75-21.88-16.47-42.55-31.79-54.47-56.82-4.18-8.79-8.37-23-15.47-29.27-10.64-9.36-32.22-5.34-43.71,0-15.25,7.09-26.34,18.9-34.64,33.29-3.72,6.46-9.74,16.86-2.69,24.55,5.07-3.6,7.12-9.94,10.09-15.13,9.22-16.1,22.06-29.83,48.09-26.9,3.58-2.23,17.86-9.3,17.15.67-.35,4.88-9.59,6.61-14.13,9.09-15.17,8.28-28,21.71-24.21,44.38a64.12,64.12,0,0,1,27.91-29.59c4-2.13,18-9.83,17.82,0-.11,5-9.09,7-12.44,8.74-15,7.83-22.57,19.75-28.92,35,1.2,2,2.74,4.52,4.37,6.71,1.46,2,3.57,5.42,5,5.06,6.79-13.08,18.51-24.82,31.94-33,3.36-2,19.69-12.54,19.17-1.35-.16,3.64-4.72,5-8.07,6.72-9.45,5-18.87,11.92-25.22,19.18-4.33,4.93-6.1,10.65-12.11,14.11,8.87,9,26,8.77,38.67,4.38,4.24-1.46,19.05-10.63,18.84-.34-.11,4.58-7.72,6.89-11.44,8.4a57.1,57.1,0,0,1-15.8,4.38C1207.68,1104.6,1216,1116.09,1237.18,1117.4Zm-142.91-78.68c2.64-3.52,6.41-5.92,8.41-10.09C1097.54,1029.44,1093,1032.65,1094.27,1038.72Zm38-8.06c-4.35,4.46-9.43,9.75-13.8,14.11-1.42,1.42-3.89,2.77-3.36,4,8.69.65,20.32,1.86,27.91,1.36a43.29,43.29,0,0,1-3.36-17.81C1137.07,1031.91,1135.2,1030.74,1132.28,1030.66Z" transform="translate(0 30.47)"></path><path class="cls-11" d="M1195.15,491.62c18.65-1.89,26.84,7.31,34.3,18.5,3,4.44,6.88,9.89,6.06,13.45-.49,2.11-3.06,3.5-5.39,3.35-2.84-.18-4.87-3.69-6-5.7-5.5-9.35-11-21.3-27.58-19.85-5.41.46-15.25,5.44-15.13-3C1181.45,492.3,1190.81,492.05,1195.15,491.62Z" transform="translate(0 30.47)"></path><path class="cls-11" d="M1197.51,519.87c4.17-.44,9.76,2,10.09,8.4.12,2.57-2,11.19-3.37,13.8-4.19,8.15-17.07,4.72-17.49-3.72-.14-3,1.13-5.24,1.69-7.38C1190,525.06,1190.62,520.57,1197.51,519.87Z" transform="translate(0 30.47)"></path><path class="cls-11" d="M1184.06,577.37c-5.1,1.57-12,8.8-20.51,9.75-6.45.72-15.94.39-16.14-5.39-.3-8.21,9.24-3.64,16.14-5,9.22-1.89,12.59-8.75,19.5-10.43,14.5-3.53,12.5,16.47,6.72,23.54-3,3.62-7.89,6.42-12.1,8.07-4.9,1.9-18.92,6.3-19.5-1.35-.35-4.39,3.07-5.22,7.73-6C1174.56,588.93,1183,586.06,1184.06,577.37Z" transform="translate(0 30.47)"></path><g class="cls-12"><path class="cls-9" d="M853.1,646.63h-525S347.85,540.52,378.56,466c47.17-114.32,102.25-121.39,102.25-121.39s57.4-136.87,72-176.57,32.82-99.45,68.27-98.54,109.8,24.29,135.86,68.61,28.29,47.66,19.17,112.67-21.86,156-21.86,156,7.17,2.2,16.82,13.11,20.85,27.25,20.85,27.25,15.36-33.47,30.27-47.76,28.24-34.19,32.62-44,3.69-27.1,9.75-27.25S881,330.21,880,344s-10.42,42-10.42,42,54.13-29.21,70.62-30.27,30.4,6.49,18.5,16.8-48.77,25.92-48.77,25.92,46.66-12.08,58.52,9.41,7,43.41-8.07,56.83-53.14,12.44-53.14,12.44-20,11.09-30.6,14.81-20.52,6-20.52,6Z" transform="translate(0 30.47)"></path><path class="cls-11" d="M796.72,446.84s-13.3-23-27.58-33.3-23.87-16.14-23.87-16.14-83.47,35-162.1,12.1-117.71-51.79-117.71-51.79S407.85,372,365.91,497.28,328.24,651,328.24,651l45.41-1S484.79,542.09,508.51,524.18,553,498.11,573.08,500s39.08,7.74,46.74,3.68,6.36-9.79,11.43-4.69,7.74,9.7-1.34,16.8-21.85,7.74-21.85,7.74l-19.85,2.68s45.57,20.11,64.57,35,25.27,29.28,17.15,31-21.86-4.71-21.86-4.71-27.84,22.42-52.46,28.25-51.79,5-51.79,5l-52.46,56.16L738.2,665.43Z" transform="translate(0 30.47)"></path><path class="cls-9" d="M602,247.72l35.64,217.6S615.94,476,593.87,466s-35.31-15.47-35.31-15.47l-18.5-111.66a122,122,0,0,0-28.24,1.35c-15.46,2.56-32.29,6.4-32.29,6.4s55.16-133.21,76-179.6,33.86-92.58,56.84-95.5S724.76,77.86,756,140.78s23.72,60.28,22.2,81.73-18,120.58-21.19,159.74-5.05,99.55-5.05,99.55L686,478.42l-28.58-114s-28.89-2.66-26.58-16.14,15.81-48.43,15.81-48.43,40,13,61.88-4.7,21.84-53.83,21.86-56.85,6.39-13.78,6.39-13.78l6.05-8.08-1.34-29.58L609,210.07s-15.36-11.12-24.54-7.74-10.4,17.81-7.07,27.9S602,247.72,602,247.72Z" transform="translate(0 30.47)"></path><path class="cls-11" d="M587.29,255.82l35.64,217.6a88,88,0,0,1-43-7.42C557.86,456,549,423.45,549,423.45l-10.79-80.12s-23.93-2.55-39.38,0-14-9.54-14-9.54,45.38-111.87,66.23-158.26,23.65-93,46.64-95.93,105.11,10.53,143.59,69.28c32.48,49.58,23.72,60.28,22.2,81.73s-18,120.58-21.19,159.74-5.05,92.84-5.05,92.84L686,478.42,654.78,366.19s-26.23-4.43-23.92-17.91,15.81-48.43,15.81-48.43S672,321,693.89,303.25s35.34-31.9,35.36-34.93,7.33-28.1,7.33-28.1l9-22.58L741.52,187l-130.4,26.74-26.51-12.09a46.39,46.39,0,0,1-14.81,8.78c-9.19,3.36-10.4,17.82-7.06,27.91S587.29,255.82,587.29,255.82Z" transform="translate(0 30.47)"></path><path class="cls-11" d="M759.67,400.54c13.09,11.13,25.37,23,33.63,39,6.37-24.94,21.9-40.69,37.32-57.51,7.21-7.84,14.47-16.43,19.17-28.23,1.92-4.82,4-11.46,6.05-17.5s4.55-13.55,11.1-13.1c11,.73,18.4,14,18.49,26.89.07,9.72-3.78,19.08-6.73,25.9,11.89-5.91,23.32-11.78,38-17.49,10.94-4.27,32-13.22,44.72-6.05,4.32,2.42,6.5,7.72,4.71,14.12-4.09,14.63-20.24,19.19-33.62,24.54,17.77.32,31,2.53,39.34,11.1,14.79,15.16,8.58,45.75-2.69,59.52-8.93,10.92-23.46,16.74-40.69,19.17-5.9.84-12.39-.14-18.83,1-3.57.63-8,4-11.43,5.72a161.53,161.53,0,0,1-38,13.45c-2.16,48.28-4.16,95.09-6.39,144.92-.32,7.28.51,16-5.38,16.15-6.9.17-5-11.58-4.71-17.49,2.14-44.67,3.82-85.44,5.72-130.14.25-6-.21-17.71,2-20.5s9.11-3.07,14.8-4.71c10.91-3.14,18.64-6.71,27.92-11.1,3.85-1.83,9.14-5.73,12.77-6.39,6.14-1.1,12.37-.09,17.82-.67,16.08-1.74,29.15-6.28,37.33-17.48-15.33,1.14-31.75,1.81-48.42,2.68-5.11.28-11.86,1.39-12.11-4-.26-5.76,7.12-5.1,13.46-5.4,17.2-.8,35.37-2.42,52.45-3a46.3,46.3,0,0,0,3-17.49c-17.41.9-35.62,2.55-53.81,3.71-6.22.39-14.33,1.56-14.8-3.71-.54-6.22,7.81-5.73,13.13-6,18-1.06,35.88-2.35,53.46-3.37-3.78-19.23-37.18-16.67-57.5-12.44-6.29,1.3-21.42,8.25-21.19-1.35.12-5,9.16-7.85,13.12-9.74,5.41-2.61,10.58-4.85,15.46-7.06,10.76-4.91,23.46-8.35,31.28-13.8,3.28-2.28,6.49-6.05,7.05-10.76-7.74-3.37-16.54-.72-23.53,1.36C911.93,369.5,893,380.44,875,389.78c3.73,9.51,5.32,24.55,1.34,36a56.19,56.19,0,0,1-7.06,13.79c-1.67,2.47-6.23,10.36-10.76,10.09a5.57,5.57,0,0,1-4.71-4.37c-.43-4.16,5.49-8.52,8.07-12.44,5.61-8.49,8.57-19.46,5.72-32.62a79.2,79.2,0,0,0-2.36-7.74c-.87-2.6-2.45-5.37-2.35-7.73.11-2.54,2.29-4.59,3.7-7.06,5.7-10,15.08-34.94,1-43.72-5.67,15.66-9.4,29.45-17.82,41s-18.69,20.59-27.58,31.26-15.31,23.45-19.84,39c-13.15,45.24-25.15,91.51-38,137.86-7.15,25.79-14.54,53.38-22.2,80.72-1.23,4.4-2.77,8.29-6,8.4-8.47.27-4.06-9.94-2.35-16.15,17.39-63.4,33.79-124.37,51.78-188.31,1.25-4.41,3.79-9.9,3.7-13.1-.1-3.43-4-9.19-5.72-12.11A105,105,0,0,0,759,413.65c-.7,16.16-1.34,36.62-1.34,56.16,0,5.77,1.49,13.81-1.34,16.83-3.51,3.71-10.74.64-16.15,1.33,5.53,13.6,13.45,27.8,13.45,47.07,0,38.23-25.9,59.51-55.81,68.6-4,13-7.86,26-12.11,40-1.38,4.55-2,11.25-7.06,11.1-8.51-.26-3.26-11.61-1.69-16.81,2.73-9,5.66-19.07,8.41-28.25,1.32-4.37,2.83-11.53,4.71-13.44,2.45-2.51,12.59-4.93,15.81-6.4,15.72-7.18,27-17,33.29-33.29,9.29-24.18-.26-51.87-11.1-68.6-6.91-.32-13.82-.33-21.52-.33-5.79,0-16.11,1.12-20.51-1.34-3.23-1.82-4-9-5-13.8-7.76-34.46-18.42-71.33-28.25-102.23-11.2-3.53-24.94-6.59-26.9-18.48-1.33-8.12,2.62-20.09,4.71-26.91A209.31,209.31,0,0,1,639.29,302c-5.45-4.13-11.95-8.25-17.48-12.77-1.9-1.53-4-2.86-3.71-6.38a4.8,4.8,0,0,1,3.71-4.38c4.24-.75,7.37,3.72,10.41,6,8.41,6.47,19.26,14.75,33,15.81,21.58,1.66,37.56-7.54,48.08-17.48,8.85-8.38,13.57-18.39,15.14-34,.66-6.55.8-11.56,5.38-11.77,10.22-.42,3,24.37,1.34,29.27a59.48,59.48,0,0,1-14.79,23.53c-13.94,13.94-45.64,27.78-72,16.48-3.78,9-8,19.59-10.76,31.26-.83,3.56-2.33,8.77-1.67,12.12,1,5.38,10.68,8.63,16.47,10.07,2.6.68,5.51.61,7.06,1.7,2.5,1.74,4,9,5.38,13.46,10.4,32.42,19.45,67.74,27.58,102.22,18.14.46,36.89.32,54.81,1,.66-41.46,1.27-79.76,6-117,4.66-36.34,12.28-71.09,17.48-105.59,2.9-19.19,4.61-38.22,3-57.16S767,165.3,759,151.7c-14.84-25.06-37.7-44.06-64.89-57.82-22.17-11.24-68.32-30.1-95.17-9.08-11,8.6-18.24,22.94-24.21,37.32-6.18,14.89-10.88,30.53-16.14,45.4-10.57,29.86-23.75,58.24-36.31,86.75s-24.58,57.32-36,86.77c14.72-3.12,30-5.68,47.75-5.74,1.2-6.06-6.4-26,3.69-25.2,5.49.43,5.15,8.38,5.72,15.12a704.22,704.22,0,0,0,21.86,121.72c16.55,10.5,37.64,18.14,65.91,15.82a1976.08,1976.08,0,0,1-34.31-210.85c-14.66-4.18-26.52-16.61-26.22-36,.18-12.22,10.6-22.11,21.86-20.18,8,1.37,12.25,7.49,17.82,12.45,43.19-8.15,89.93-17.47,133.5-27.58,4.87-1.14,15.41-4.78,15.46,2.69,0,6.26-8.78,5.56-12.78,7.06.35,2.28,2.61,5.83,3.37,8.75,2,7.64,2.47,22.35-4,23.19-2.67.36-5.28-2.18-8.41-4-4.42-2.62-10.78-5.74-17.81-4-8.26,2-12.21,8.26-16.82,15.82,4.82-4.36,14.71-3,15.81,5.37.8,6.19-3.36,18.06-9.08,19.17-4.35.82-6.68-.9-9.08-2.7a49.9,49.9,0,0,0,2.68,8.08c.74,1.76,3.15,4.82,2.7,8.07-.64,4.56-18.6,13.21-18.83,3.37-.11-4.61,3.79-4.88,7.06-6.73-16-31.72,12.85-75.22,46.73-56.15,0-7-2.47-11.44-5-15.82-17.73,4.14-35.89,7.83-53.81,11.76-.75.86.87,1.86,1,3.39.69,7.61-7.4,5.13-11.09,3.68-3.43-1.34-7.62-2.95-9.76-3-3.79-.14-9.38,1.79-13.79,2.68-9.55,1.92-17.17,3.44-27.57,5.38-3.95.74-10.74,2.9-14.46,2-3.06-.72-5.31-5.29-7.4-7.41-2.29-2.32-5.24-5.91-10.08-5.38a8.69,8.69,0,0,0-7.06,5.71c-4,10,3.67,24.69,12.44,28.59,3.81,1.69,8.1.46,11.09,4C606.88,246,607.44,253,608,258c8.06,70.28,18.47,133.39,31.94,197.72,1,4.59,3.65,10.74,1.68,14.12-2.47,4.24-16.82,3.41-23.54,3.37-19.11-.11-29.77-3.9-43.71-10.08-5.48-2.44-14.68-5.56-17.49-9.42-1.87-2.58-2.61-8.41-3.7-12.77-7.65-30.64-14.05-61.41-17.82-95.52-44.07,1.68-75.5,10.1-97.85,31.62-21.06,20.29-35.86,51.47-48.75,80.36-24.79,55.45-43,118.29-54.15,188-.95,5.94-2.83,15.28-9.41,10.42-4-3,.15-17.12,1.34-24.2a780.78,780.78,0,0,1,44.39-158c11-27.62,23.6-54.2,38.33-77.33,15.05-23.64,35-42.81,64.23-51.12,19.38-50.89,42.46-99.88,63.89-151,10.23-24.4,18.32-52.89,29.26-78.36,11.09-25.83,24.71-48.28,58.16-50.42C646,63.92,663.89,70,679.3,76.06a191.06,191.06,0,0,1,42.37,22.52c24.83,17.48,47,40.85,57.17,72.64,11.4,35.47,3.28,80.41-3,115.67C769.09,324.46,762,360.83,759.67,400.54Z" transform="translate(0 30.47)"></path><path class="cls-11" d="M589.18,212.23c3.59-.84,15.08,6.84,15.8,10.43.65,3.17-1.54,5.57-3.69,5.72-3.22.22-6.08-3.69-8.41-5.38-1.63-1.19-7-2.44-7.06-6.73A4,4,0,0,1,589.18,212.23Z" transform="translate(0 30.47)"></path><path class="cls-11" d="M653.75,214.58c4.18-.42,9.76,2,10.09,8.42.12,2.55-2,11.2-3.37,13.78-4.2,8.18-17.07,4.74-17.49-3.69-.14-3,1.13-5.25,1.69-7.41C646.2,219.78,646.86,215.31,653.75,214.58Z" transform="translate(0 30.47)"></path><path class="cls-11" d="M656.44,268.06c-.14,4.68,1.67,7.48,5.38,11.09,2.63,2.56,7.65,4.89,7.73,8.42a4.89,4.89,0,0,1-3.36,5c-5.12,1.32-9.58-4.35-12.78-7.72-3.85-4.05-6.58-9.09-7.06-13.44-1-8.87,4.7-17.78,14.12-13.8,6.57,2.77,5.28,9.76,10.77,14.13,4.32,3.44,11,1.15,11.09,7.39.12,7.77-11.35,4.58-15.8,1.68C662.27,278.06,659.89,273,656.44,268.06Z" transform="translate(0 30.47)"></path><path class="cls-11" d="M490.66,529c15.44-10.61,31.35-29.57,59.52-31.6,15.67-1.16,28.51,3.35,44.05,3.35,6.54,0,12.47-1.65,18.15-3.35,6.34-1.93,17-6.21,22.53-1.68,2.54,2.06,3.53,5.81,3.71,8.72,1.15,18.65-17.55,30.27-38.34,24.91,18,10.55,44.39,17.77,61.87,31.26,5.57,4.29,11.67,10.16,14.46,16.48,5,11.45-3.72,22.76-16.81,20.84-3.78-.57-6-3.66-10.76-3-3.15.42-6.67,4.45-11.1,7.06-3.08,1.81-6.78,3.15-9.41,4.71-2.88,1.72-5.36,4.3-7.74,5.72-15.19,9.13-38.41,16.9-62.54,14.13-3-.35-7-2.21-10.09-1.69-2.24.38-6.2,5.36-8.07,7.4-14.91,16.25-29.82,30.49-45.73,46.4-2.64,2.63-5.51,6.56-8.75,6.4a4.77,4.77,0,0,1-4.7-4.39c-.4-5,10-13,12.78-15.79,14.11-14.12,29.24-29.58,42.37-43-4.29-3.15-19.17-3.1-19.51-10.43-.44-9.44,10.58-3.25,16.14-1.34,11.84,4.06,26.38,7.61,42.37,6.72,9.12-.5,17.23-3.38,24.22-5.72-6-1-11.82-1.36-18.5-2.68-4.78-1-14-1.92-14.79-6.4-1.6-9.49,11.81-4.8,17.48-3.69,13.95,2.71,34.73,5,44.72-3a203.54,203.54,0,0,1-44.39-6.38c-3.64-1-10-2.25-10.09-6.74-.13-8.24,11.23-3.65,16.81-2.35,13.43,3.15,29.58,6.07,45.41,5.39-12.39-6.6-29.52-12.08-45.07-17.83-3.77-1.4-13-3.23-13.78-7.06-2.15-9.87,9.81-5.2,14.8-3.36,18.24,6.76,39.81,13.12,55.14,22.86,5.58,3.56,14.05,11.51,20.85,5.72C666.33,575.08,657,569,649.38,564.31c-20.47-12.51-44.9-20.59-67.59-31.61-3.76-1.82-11-4.88-11.1-8.75a5.39,5.39,0,0,1,3.7-5c4.11-.92,7.44,3.24,10.09,3.35,2.17.11,6.45-2.63,10.42-3,8.32-.82,17,2.29,23.2.34,6.88-2.18,10.46-8.05,10.09-15.48-13.14,2.16-22.33,7.35-36.31,6.72-13.46-.59-25.87-4.33-40.36-3.35-21.64,1.45-39.83,16.65-52.45,28.23-14.8,13.61-28.05,27.13-40.36,40.37-22.26,23.94-47.34,46.27-72.63,68.59-3.34,2.94-8,8.41-11.77,8.08a4.6,4.6,0,0,1-4.37-4.72c-.14-4.65,9.74-11.07,12.44-13.45,29.81-26.16,57.17-52,84.41-81.7,2.25-2.48,5.18-4.3,6.38-6.4s2-5.37,3-8.06c5.17-13,10.18-25.51,15.47-39,1.55-4,3.84-14.58,8.41-15.14,8.92-1.08,4.61,9.66,2.68,14.47C498.79,508.67,494.22,520.06,490.66,529Z" transform="translate(0 30.47)"></path><path class="cls-11" d="M552,394.62c.32,4,1.35,7.4,1.67,11.44-36-13-69.34-28.62-98.52-48.43,3.68-1.14,7.18-4.26,10.09-5C492.31,368.49,520.8,382.92,552,394.62Z" transform="translate(0 30.47)"></path><path class="cls-11" d="M624.67,411.43c15.2,1.4,32.13,2.84,48.76,1.68a22.49,22.49,0,0,0,2,10.09c-16.14,1.73-34.79.31-49.77-1.34A44.11,44.11,0,0,0,624.67,411.43Z" transform="translate(0 30.47)"></path></g><path class="cls-11" d="M218,1152.75H1605.6a24.88,24.88,0,1,1,0,49.76H218a24.88,24.88,0,1,1,0-49.76Z" transform="translate(0 30.47)"></path><path class="cls-9" d="M497.13,957.8c8.27,2.63,23.63-5.76,38.76-18.5s11.16-26.46,12.22-38.41,19.28-69.18,10.48-85.55S508.27,752.51,480,761.57s-33.22,52.67-25.5,66,31.26,29.68,26.9,44-26.81,21.49-25.15,42.24S488.86,955.17,497.13,957.8Z" transform="translate(0 30.47)"></path><path class="cls-11" d="M561.79,825.56c0-22.75-17.11-37.62-29.92-48.76-7.44-6.45-13.21-11.77-21.86-17.48-7.81-5.16-21.48-13.33-34-9.41-11.76,3.67-17.49,15.2-22.19,27.56a104.25,104.25,0,0,0-6.72,28.26v10.09c2.24,15,12.36,24.46,20.51,35.3,2.58,3.42,5.91,7.76,6.05,12.1.21,6.61-6.26,13.58-10.42,17.82-7.41,7.58-14.15,13-14.12,27.24,0,24.39,18.15,34,34.63,43,5.62,3.08,10.82,7.66,16.14,3.7,7.33,9.21,14.4,25.23,7.74,39.68-3.82,8.26-10.9,15.62-17.15,23.54a75.89,75.89,0,0,0-14.13,26.56,206.5,206.5,0,0,0-6.39,34.31c-.62,6-1.16,15.36-1.35,18.82-.55,10.84,0,14.57,5.05,14.47,5.66-.12,5-8.41,5.38-17.15,1-20.52,3.36-40.68,10.43-56.16,8.69-19.07,31.45-31.79,31.61-57.51.14-24.1-21-34.19-22.87-55.82-.89-10,2.42-19.54,5.71-27.23s7.33-14.87,10.76-22.2c6.77-14.42,8.68-39,1-54.81-4-8.29-10.39-15.24-17.7-22.15a11.13,11.13,0,0,1-8.6,6.81c2.23,2.1,4.43,3.9,5.45,4.91,5.27,5.29,8.68,9.2,11.43,14.8,5.17,10.52,5.39,26.43,2,38.68C502.65,885.18,482,906,489.16,933.16a41.06,41.06,0,0,0,4.71,11.43C485,940,471.42,934.4,465.62,926.43c-4.5-6.18-8-16.14-5-25.55,1.78-5.71,8.38-10.91,12.11-15.13,5.81-6.6,14.07-14.58,10.75-27.57-4.16-16.35-20.78-22.82-25.22-40-2.71-10.53,1-26.34,4.72-36.31,2.89-7.74,9-21,17.81-22.53s18.93,5.66,24.55,9.41a181.17,181.17,0,0,1,18.83,14.8c11.92,10.39,26.37,21.65,27.23,40.69.35,7.5-2,15.15-4,22.53s-4.07,14-6.05,20.5-4.42,13.89-4.37,21.52c.05,8.67,4.22,18.79,1.68,27.25s-12.66,15.34-20.18,20.17c-2.79,1.79-6.08,3.55-5.71,7.39a4.64,4.64,0,0,0,3,4c6,2.08,15.34-7.7,18.49-10.42,7.79-6.73,14.93-12.86,15.47-25.9.35-8.59-2.47-15.86-2.36-23.53s2.61-14.12,4.71-20.85C556.08,854,561.79,840.23,561.79,825.56Z" transform="translate(0 30.47)"></path><path class="cls-9" d="M399.08,938.69c-8-.15-56.66,1.12-64.25-18.51s24.39-54.57,13.27-69.48S323.05,828.46,323,807s3-43.35,16.06-47.48,44,3.58,49.93,19.2-.46,39.75,11.53,54.47,29.84,21.29,29.68,42.61-11.3,45.86-15.71,50.63S407.13,938.84,399.08,938.69Z" transform="translate(0 30.47)"></path><path class="cls-9" d="M448.51,583.48c22.41-5.2,48.18,10.92,47.86,27.5s-11.52,52.64-.83,73.77,40,49.79,30.87,81.36c-11,38.12-36.88,36.39-33.89,58.3s20.17,37.4,15.72,51.33S487.36,926.35,463.18,926s-50.95-22.2-67.77-40-32.12-58.6-6.48-82.56,44.8-55.68,24.29-81.11-46.18-75-17.3-103S427.83,588.31,448.51,583.48Z" transform="translate(0 30.47)"></path><path class="cls-13" d="M475.29,954.68c8.27,2.63,23.63-5.76,38.75-18.5s11.17-26.46,12.23-38.41,19.27-69.18,10.48-85.56-50.33-62.82-78.57-53.76-33.22,52.67-25.5,66,31.26,29.69,26.89,44-26.81,21.49-25.14,42.24S467,952.05,475.29,954.68Z" transform="translate(0 30.47)"></path><path class="cls-14" d="M383.48,944.93c-8-.15-56.66,1.13-64.25-18.51s24.38-54.57,13.27-69.48-25.05-22.24-25.15-43.66,3-43.35,16.07-47.48,43.95,3.59,49.93,19.2-.46,39.75,11.53,54.47,29.84,21.29,29.68,42.61-11.3,45.86-15.71,50.63S391.52,945.08,383.48,944.93Z" transform="translate(0 30.47)"></path><path class="cls-11" d="M386,927.07c-8-6.52-16.48-14.92-17.48-29.6-.62-9.06,1.31-18.92,3-27.91,1.56-8.15,4.69-19.45,3-26.9-2.66-11.92-15.34-14.77-20.17-25.89-1.62-3.71-2.55-10.84-2.7-16.82s0-13.18,6.05-12.78c7.6.5,3.28,17.47,5.72,24.54s13.07,12.93,17.49,19.85c10.92,17.1-3.55,44.54-2,65.58,2,27.07,38.48,24.91,40,54.47.76,14.71-5.37,26.14-9.42,37.65s-8.2,23.29-10.09,36.66c-2.88,20.37-2.69,43.21-2.69,67.59,0,7.93,1.52,17.69-4.71,17.81-6.42.15-5.72-9.41-5.72-17.81,0-24,0-47.3,2.7-67.59s10.12-37,15.8-54.81c1.78-5.58,4.31-12.17,3.7-19.5-.6-7.16-3.91-10.55-8.74-15.14-10.47,1.67-23.53,1.36-35.3,0-17.14-2-35.44-6.33-37-22.86-1.86-19.78,15-36.43,14.46-55.82-.58-21.47-26.55-28.94-28.92-51.78-2.16-20.87,6.39-45,19.17-53.14,4.13-2.63,9.89-4.25,17.82-3.35,16,1.78,34.26,15.35,41,26.89,6.67,11.38,4,36.49,10.08,48.43,8.79,17.2,30.49,26.54,32.28,48.09,1,12.07-3.85,22.18-8.07,31.26-1.78,3.84-4,8.12-6.72,12.79-2.16,3.67-5.14,10.09-10.09,9.41-7.26-1-2.58-8.72-.67-11.78a122.81,122.81,0,0,0,12.44-25.22c1.59-4.59,3.31-10.35,2.69-16.13-1.05-9.75-10.69-19.11-16.48-24.89C395.42,837.3,387.05,825,386,804c-.39-7.62-.38-14.51-3-20.5-2.94-6.68-9.6-11.87-16.81-16.49-6.51-4.16-17.16-9.09-25.22-6.72-7.11,2.1-11.07,10.69-13.78,18.49-2.55,7.34-5.3,19-3.37,28.26,1.82,8.65,9.2,14.91,15.47,22.19,7.43,8.59,14.25,18.83,12.78,33.63-1.31,13.11-8.42,25.09-12.11,37.65-1.35,4.62-2.89,9.83-1.68,14.12,1.81,6.46,12.45,9.08,19.84,10.43C367.64,926.79,376.07,926.85,386,927.07Z" transform="translate(0 30.47)"></path><path class="cls-15" d="M429.78,583.48c22.41-5.2,48.19,10.92,47.87,27.5s-11.52,52.64-.84,73.77,40,49.79,30.88,81.36c-11,38.12-36.88,36.39-33.89,58.3s20.16,37.4,15.72,51.33S468.64,926.35,444.46,926s-50.95-22.2-67.77-40-32.12-58.6-6.48-82.56S415,747.8,394.5,722.37s-46.18-75-17.31-103S409.11,588.31,429.78,583.48Z" transform="translate(0 30.47)"></path><path class="cls-11" d="M463.55,924.75c3,13,8.73,26.33,9.76,41.68,2,30.53-14.63,47.3-22.87,70-5.49,15.09-7.78,40.67-8.74,60.85-.32,6.65,1.61,18-5.71,17.83-6.55-.12-5.05-9.5-4.71-16.82.94-20.88,2.65-42.06,7.39-58.84,6.57-23.24,22.38-38.64,24.21-64.23,1.2-16.58-4.55-31.4-8.74-45.06C447,906.74,439.43,885,432.62,860.85c-3.24-11.5-7.64-25.86-6.39-38.33S434,799.07,440,790.23c6.46-9.53,15.21-18,19.5-27.24,3.76-8.13,7.87-21.77,4.71-33.29-1.86-6.74-6-12.36-9.75-17.81-7.51-10.93-15-20.47-19.84-35-2.21-6.7-4.63-14.93-4-23.22.43-6.16,3-11.19,5.71-16.46,1.69-3.25,7.85-16.25,13.45-9.09,3.25,4.16-2.34,10-3.7,12.44-2.34,4.21-4.67,9.18-5.05,13.11-.53,5.58,1.07,11.77,2.36,16.16a109.45,109.45,0,0,0,4.71,13.44c6.93,15.37,20.68,26.34,25.89,42,2,6.12,2.17,13.43,1.35,19.5-3.06,22.52-14.18,33.53-24.89,49.09-6.27,9.12-13.78,20.26-14.12,32-.22,7.67,2.18,16,4,23.53,5.47,22.34,13.38,43.13,19.83,64.57,6.82-2.91,13.22-8.47,19.85-13.79,6.43-5.18,12.87-10.75,17.15-17.15,2.53-3.79,4.56-7.44,4-14.12-1.53-19-25.69-34.37-16.82-56.83,6.14-15.54,22.93-20.05,29.93-33,6.49-12,8.71-34.19,2.69-49.1-4.42-10.94-12.32-18.19-18.83-27.9C492,693,486,680.45,485.07,668.5c-.76-10.49,1.16-19.8,2.7-27.91,1.31-6.91,5.26-18.24,3-27.56-1.62-6.79-6.27-13.22-10.08-17.49a34.75,34.75,0,0,0-16.82-10.77c-15.06-4.41-31,4.23-41.36,10.77A89.86,89.86,0,0,0,395,622.77c-7.81,11.79-17.81,34.18-10.42,51.11,5,11.37,13.55,20.26,20.84,30.61,8.33,11.81,17.5,24.51,16.14,43.38-1.6,22.44-17.4,38.94-28.58,53.79-3.88,5.16-9,11.25-11.09,17.15-4.94,13.65-4.92,32.56.67,44.05,5.14,10.58,17.71,20,26.23,26.91,4.59,3.71,9.42,7.24,15.13,11.43,4.18,3.08,17.81,10.39,10.76,15.8-5,3.85-14-5.11-17.49-7.74-5.74-4.26-10.93-8.38-15.12-11.76-9.07-7.26-21-16.45-27.25-26.56-8.64-14-9-40.72-1.68-57.5,9.64-22,31.49-35.17,37.33-61.21,4.41-19.65-8.51-34.75-16.82-45.73-9.79-12.93-21.13-25.83-22.19-41.7-1.69-25.41,13.35-47.91,25.56-61.18,14.52-15.81,32.3-27.44,56.82-30.28,11.63-1.34,23.66,4.72,30.94,11.43,7,6.48,15.51,17.72,16.81,28.26a48.21,48.21,0,0,1,0,9.07c-1.09,16.76-7.28,27.11-6.05,45.4,1.63,24.4,22,37.63,30.94,58.17,7.5,17.32,4.69,45.11-3,58.85-3.51,6.24-10.42,11.91-16.48,16.8-5.49,4.45-13.5,11-14.12,18.83-.67,8.57,5.59,17,9.08,23.22,4.79,8.53,11.49,18.28,9.75,31.93-.4,3.17-2.06,6.54-3.36,9.08C499.18,902.19,479,914.12,463.55,924.75Z" transform="translate(0 30.47)"></path><path class="cls-3" d="M381,1017.8H528c12.53,0,22.69,7.81,22.69,17.45l-22,95.33a17.47,17.47,0,0,1-17.46,17.47H398.09a17.46,17.46,0,0,1-17.45-17.47l-22.36-95.33C358.28,1025.61,368.44,1017.8,381,1017.8Z" transform="translate(0 30.47)"></path><path class="cls-3" d="M511.23,1153.09H398.09a22.53,22.53,0,0,1-22.49-21.89l-22.23-94.8a5,5,0,0,1-.13-1.15c0-12.41,12.44-22.49,27.74-22.49H528c15.29,0,27.73,10.08,27.73,22.49a4.78,4.78,0,0,1-.13,1.13l-21.88,94.81A22.53,22.53,0,0,1,511.23,1153.09ZM363.34,1034.73l22.21,94.69a5,5,0,0,1,.13,1.16A12.43,12.43,0,0,0,398.09,1143H511.23a12.42,12.42,0,0,0,12.41-12.42,5.46,5.46,0,0,1,.13-1.14l21.86-94.7c-.39-6.5-8.31-11.9-17.63-11.9H381C371.66,1022.84,363.74,1028.23,363.34,1034.73Z" transform="translate(0 30.47)"></path><path class="cls-7" d="M351.11,991h208.1a6.8,6.8,0,0,1,6.63,7l5.77,40.15a7,7,0,0,1-7,7H345.7a7,7,0,0,1-7-7L344.47,998A6.82,6.82,0,0,1,351.11,991Z" transform="translate(0 30.47)"></path><path class="cls-3" d="M564.63,1050.14H345.7a12,12,0,0,1-12-12,4.36,4.36,0,0,1,.05-.72l5.71-39.84a11.87,11.87,0,0,1,11.68-11.62h208.1a11.86,11.86,0,0,1,11.67,11.62l5.72,39.84a4.37,4.37,0,0,1,.06.72A12,12,0,0,1,564.63,1050.14Zm-220.86-11.78a1.94,1.94,0,0,0,1.93,1.7H564.63a1.94,1.94,0,0,0,1.92-1.7l-5.7-39.68a4.36,4.36,0,0,1-.05-.72,1.79,1.79,0,0,0-1.59-1.94H351.11a1.8,1.8,0,0,0-1.6,1.94,4.36,4.36,0,0,1-.05.72Z" transform="translate(0 30.47)"></path><path class="cls-2" d="M575.92,1106.7h426.89a16.81,16.81,0,0,1,16.82,16.81v10.74a16.83,16.83,0,0,1-16.82,16.82H575.92a16.83,16.83,0,0,1-16.82-16.82v-10.74A16.81,16.81,0,0,1,575.92,1106.7Z" transform="translate(0 30.47)"></path><path class="cls-3" d="M1002.81,1156.11H575.92a21.88,21.88,0,0,1-21.86-21.86v-10.74a21.87,21.87,0,0,1,21.86-21.85h426.89a21.88,21.88,0,0,1,21.87,21.85v10.74A21.89,21.89,0,0,1,1002.81,1156.11Zm-426.89-44.36a11.77,11.77,0,0,0-11.77,11.76v10.74A11.78,11.78,0,0,0,575.92,1146h426.89a11.79,11.79,0,0,0,11.78-11.77v-10.74a11.78,11.78,0,0,0-11.78-11.76Z" transform="translate(0 30.47)"></path><path class="cls-2" d="M476.73,891.33H814.32c9.29,0,19.28,6.37,22.31,14.24l72.9,189.11c3,7.85-9.86,25.2-19.16,25.2H552.83c-9.29,0-19.29-6.36-22.31-14.23l-72.89-189C454.6,908.8,467.44,891.33,476.73,891.33Z" transform="translate(0 30.47)"></path><path class="cls-3" d="M890.37,1124.92H552.83c-11.38,0-23.25-7.67-27-17.46l-72.89-189c-2.75-7.15,2.33-15.75,4.65-19.12,4.34-6.32,11.65-13.08,19.16-13.08H814.32c11.38,0,23.25,7.68,27,17.48l72.9,189.11c2.73,7.07-2.28,15.58-4.57,18.9C905.31,1118.13,898,1124.92,890.37,1124.92ZM476.73,896.37c-2.39,0-7.11,3.25-10.85,8.7-3.23,4.7-4,8.55-3.54,9.78l72.88,189c2.3,6,10.36,11,17.61,11H890.37c2.44,0,7.22-3.29,11-8.77,3.17-4.62,3.94-8.38,3.48-9.58L831.92,907.38c-2.29-6-10.36-11-17.6-11Z" transform="translate(0 30.47)"></path><path class="cls-3" d="M28.34,1152.56H1724.63a21.79,21.79,0,0,1,21.79,21.79v6.55a21.79,21.79,0,0,1-21.79,21.79H28.34a21.8,21.8,0,0,1-21.8-21.79v-6.55A21.8,21.8,0,0,1,28.34,1152.56Z" transform="translate(0 30.47)"></path><path class="cls-3" d="M1724.63,1209.23H28.34A28.37,28.37,0,0,1,0,1180.9v-6.55A28.37,28.37,0,0,1,28.34,1146H1724.63a28.36,28.36,0,0,1,28.33,28.33v6.55A28.36,28.36,0,0,1,1724.63,1209.23ZM28.34,1159.1a15.27,15.27,0,0,0-15.26,15.25v6.55a15.27,15.27,0,0,0,15.26,15.25H1724.63a15.27,15.27,0,0,0,15.25-15.25v-6.55a15.27,15.27,0,0,0-15.25-15.25Z" transform="translate(0 30.47)"></path><path class="cls-5" d="M1290.45,241.26c9.62-1.22,16.9,1.81,20.53,8.55,5,9.23.19,21.3-6.5,27.37-8.26,7.49-22.07,5.81-29.08.34a17.3,17.3,0,0,1-6.84-12.66c-.53-6.34,1.31-14,5.13-17.1,1.1-.89,3-.66,5.47-1.71,3.95-1.69,5.44-4.33,10.61-4.79C1290,241.24,1290.23,241.29,1290.45,241.26Zm-9.58,21.21c-.76,6.55,9.55,9.69,14.71,6.15,3.87-2.65,4.35-7.09,4.79-12.31C1294.86,248.43,1281.52,256.9,1280.87,262.47Z" transform="translate(0 30.47)"></path><path class="cls-5" d="M1311.66,283.68c9.11-1.28,17.86,2.59,20.53,9.58,6.82,17.9-21.68,25.17-30.11,14a17.85,17.85,0,0,1-2-14c.66-2.13,1.6-1.37,3.42-3.77,1.3-1.71,1.13-3.39,2.74-4.44C1307.64,284.09,1309.15,284,1311.66,283.68Zm.69,16.42c2.93.74,7.49.53,8.21-2.05C1319.85,294.84,1309.12,293.89,1312.35,300.1Z" transform="translate(0 30.47)"></path><path class="cls-5" d="M1443,461.24c3.06-4.45,5-9.61,8.9-14,3.21-3.66,8.2-8.77,14.37-8.56a10.5,10.5,0,0,1,9.92,9.24c1.46,13.18-14.92,20.33-24,23.95-1.62,6-4.71,11.45-2.39,17.45,3.12,8.11,20.38,9,28.39,11.63,8.56,2.83,19.87,9.23,24.63,15.05,4.53,5.54,5,14.56,1,21.9-1,1.79-3.92,4.2-3.76,7.18.36,7.17,13.63,4.1,14,12,.42,8.38-10.4,6.18-14.71,4.1-6.3-3-13.38-9.4-11.29-19.5.92-4.43,6.66-9.66,6.5-14.37-.23-6.9-15.66-13.21-21.55-15-9.68-3-20.47-3.89-27.37-8.89-7.57-5.49-11.29-16.61-7.19-29.08-22.37.32-38.38-13.35-37.28-35.24,1.62-32.38,36.09-43.41,53.36-60.22-2.48-2.78-6.18-7.18-10.26-7.86-3.38-.57-6.24,1.05-8.55-.69-5.9-4.43.48-11.17,6.16-11.63a18.56,18.56,0,0,1,6.5.69c7,2.14,17.35,10.44,18.47,16.07a34.15,34.15,0,0,1,0,5.82c-1.3,7.13-12.12,14.21-19.16,18.82-12.22,8-27.49,16.75-32.84,32.15C1408.8,450,1422.46,465.64,1443,461.24Z" transform="translate(0 30.47)"></path><path class="cls-6" d="M1060.89,635c3-.72,6.83.76,7.53,4.11,1,4.67-2.36,10-2.74,16.07-.36,5.89-.78,12.47-8.21,10.61-7.19-1.8-3.41-23.82-.34-28.4A6.65,6.65,0,0,1,1060.89,635Z" transform="translate(0 30.47)"></path><path class="cls-6" d="M1026,643.24c7.42-1.43,7.24,6.43,8.55,12.66,1,4.81,3.14,9.35,1.71,13-1.16,3-6.31,4.8-9.58,2.39-2-1.45-6.42-20.07-5.13-24.28A5.39,5.39,0,0,1,1026,643.24Z" transform="translate(0 30.47)"></path><path class="cls-6" d="M1469.72,667.87c7.58-1.74,19.74,9.82,19.5,16.77-.14,4-3.76,6.86-7.19,9.23-3.62,2.51-8.22,6.94-13.68,5.82-3.23-.67-13.37-10.66-14-14.37-1.07-6.09,3.23-7.84,6.85-11C1464,671.93,1466,668.72,1469.72,667.87Zm-1,15.74c.3,1.41,1.51,1.91,2.74,2.39,3.19-1.27,4-3.44.68-5.13C1470.94,681.75,1470.22,683.08,1468.69,683.61Z" transform="translate(0 30.47)"></path><path class="cls-6" d="M988.37,668.56c6.41-1.28,9.43,7.35,14.71,9.92,3.63,1.77,7.22,1.6,7.18,6.5,0,6-7.36,7.2-12.32,4.79-4.62-2.25-14.49-10.26-14.37-15.74A5.64,5.64,0,0,1,988.37,668.56Z" transform="translate(0 30.47)"></path><path class="cls-5" d="M579.2,686.69c13.14-1.78,26,12.84,20.87,26.68-5.88,15.91-28.36,18.13-35.93,3.42C557.49,703.85,565.63,688.53,579.2,686.69Zm1,28c3.48.24,8.25-3.79,8.55-7.18.46-4.95-4.1-9.42-8.55-8.56C572.8,700.44,572.08,714.17,580.22,714.74Z" transform="translate(0 30.47)"></path><path class="cls-5" d="M621.28,753.06c-2.6-2.48-4.72-4.2-4.11-9.92.83-7.7,9-14.84,17.45-14,6.79.65,15,6.83,16.08,13.68,1.46,9.5-7.86,18.63-18.13,19.16C627.59,762.21,619.94,759.79,621.28,753.06Zm7.87-4.11c4,1.79,7.74-1.23,9.23-4.1C635.66,739.74,627.78,741.12,629.15,749Z" transform="translate(0 30.47)"></path><path class="cls-5" d="M884.36,756.48c6.75-1,8.75,8.83,9.24,14C895,786,888.4,796,877.52,799.93c-10.2,3.72-19.35-1.77-25.66-7.19-2-1.68-6.52-7.42-10.94-7.52s-7.61,4-8.56,5.81c-2.59,4.92-2.33,11.5-3.08,16.77-2.73,19.32-10.17,34.29-33.18,33.18-6.41-.31-13.28-2.53-18.48-4.45-5.7-2.09-11.52-5.91-17.1-5.47-4,.31-8.32,4.12-9.24,7.87-.88,3.56,1.14,7-.68,9.92a6.85,6.85,0,0,1-4.79,2.74c-6.87.3-8.25-8.53-6.5-15.74a23.16,23.16,0,0,1,21.55-17.11c15.68-.31,33,18.12,48.92,6.5,9.92-7.23,5.26-27,11.29-39.34,3.54-7.26,11.78-14.6,23.27-12.66,5.27.9,9.18,4.57,13,7.87,3.66,3.16,8,7.87,13,7.87,6,0,10-5.28,10.95-9.58C883,771.83,873.7,758,884.36,756.48Z" transform="translate(0 30.47)"></path></g></g></svg>