<svg xmlns="http://www.w3.org/2000/svg" viewBox="0 0 242.65 193.79"><defs><style>.cls-1,.cls-6{fill:#d6d6d6;}.cls-2{fill:#f5f5f5;}.cls-2,.cls-3,.cls-4,.cls-5,.cls-6,.cls-7{fill-rule:evenodd;}.cls-3{fill:#eb384d;}.cls-4{fill:#fff;}.cls-5{fill:#1428bf;}</style></defs><title>Asset 1</title><g id="Layer_2" data-name="Layer 2"><g id="Layer_1-2" data-name="Layer 1"><path class="cls-1" d="M85.73,144.46a1.34,1.34,0,0,1-.72-.21c-.83-.55-1.66-1.11-2.47-1.69a1.3,1.3,0,1,1,1.5-2.12c.79.56,1.59,1.11,2.4,1.64a1.3,1.3,0,0,1-.71,2.38Z"></path><path class="cls-1" d="M76.73,137.61a1.29,1.29,0,0,1-.86-.33c-1.5-1.32-3-2.71-4.37-4.14a1.3,1.3,0,1,1,1.86-1.82c1.35,1.38,2.77,2.73,4.23,4a1.3,1.3,0,0,1-.86,2.28Zm-9.82-10.37a1.32,1.32,0,0,1-1-.49c-1.23-1.58-2.43-3.22-3.54-4.88a1.3,1.3,0,0,1,2.16-1.45c1.08,1.61,2.23,3.2,3.43,4.72a1.3,1.3,0,0,1-.22,1.82A1.28,1.28,0,0,1,66.91,127.24Zm136-8.5a1.19,1.19,0,0,1-.65-.18,1.28,1.28,0,0,1-.46-1.77c1-1.67,1.9-3.4,2.74-5.14a1.31,1.31,0,0,1,1.74-.6,1.29,1.29,0,0,1,.6,1.74c-.87,1.8-1.83,3.59-2.84,5.31A1.3,1.3,0,0,1,202.87,118.74Zm-143.71-3.5a1.28,1.28,0,0,1-1.15-.7c-.92-1.78-1.78-3.62-2.56-5.46a1.3,1.3,0,0,1,2.4-1c.75,1.78,1.58,3.56,2.47,5.28a1.3,1.3,0,0,1-.56,1.75A1.26,1.26,0,0,1,59.16,115.24Zm149.73-9.44a1.32,1.32,0,0,1-1.23-1.73c.65-1.83,1.22-3.7,1.7-5.57a1.3,1.3,0,0,1,2.52.66c-.51,1.93-1.1,3.87-1.76,5.77A1.31,1.31,0,0,1,208.89,105.8ZM53.86,102a1.31,1.31,0,0,1-1.25-.94c-.55-1.92-1-3.89-1.43-5.85a1.3,1.3,0,1,1,2.54-.52c.39,1.89.85,3.79,1.39,5.65a1.3,1.3,0,0,1-.88,1.61A1.64,1.64,0,0,1,53.86,102Zm158.4-10.07h-.18a1.3,1.3,0,0,1-1.1-1.47c.26-1.91.45-3.86.56-5.79a1.3,1.3,0,1,1,2.6.15c-.11,2-.31,4-.59,6A1.3,1.3,0,0,1,212.26,91.92Zm-161-4A1.3,1.3,0,0,1,50,86.76c-.16-2-.25-4-.26-6A1.31,1.31,0,0,1,51,79.43a1.3,1.3,0,0,1,1.3,1.3c0,1.94.09,3.89.25,5.82A1.3,1.3,0,0,1,51.38,88Zm161.57-10.3a1.3,1.3,0,0,1-1.3-1.22c-.11-1.93-.3-3.88-.57-5.79a1.3,1.3,0,1,1,2.57-.36c.28,2,.48,4,.6,6a1.3,1.3,0,0,1-1.23,1.37Zm-161.36-4h-.15a1.29,1.29,0,0,1-1.15-1.43c.23-2,.54-4,.93-6a1.29,1.29,0,0,1,1.52-1,1.3,1.3,0,0,1,1,1.53c-.38,1.9-.68,3.83-.89,5.75A1.31,1.31,0,0,1,51.48,73.68ZM210.61,63.56a1.3,1.3,0,0,1-1.25-1c-.49-1.87-1.06-3.74-1.7-5.56a1.3,1.3,0,1,1,2.45-.86c.66,1.88,1.26,3.82,1.76,5.76a1.29,1.29,0,0,1-.93,1.58A1.26,1.26,0,0,1,210.61,63.56ZM54.47,59.73a1.32,1.32,0,0,1-.39-.06A1.3,1.3,0,0,1,53.24,58c.61-1.91,1.31-3.81,2.08-5.67a1.29,1.29,0,0,1,1.69-.7,1.31,1.31,0,0,1,.71,1.7c-.74,1.79-1.42,3.62-2,5.47A1.31,1.31,0,0,1,54.47,59.73Zm151.2-9.55a1.3,1.3,0,0,1-1.17-.73c-.85-1.74-1.77-3.47-2.75-5.14A1.3,1.3,0,1,1,204,43c1,1.72,2,3.51,2.85,5.31a1.3,1.3,0,0,1-1.17,1.87ZM60.15,46.63a1.32,1.32,0,0,1-.63-.17A1.28,1.28,0,0,1,59,44.7c1-1.75,2-3.48,3.12-5.16A1.3,1.3,0,0,1,64.31,41c-1.07,1.62-2.09,3.29-3,5A1.3,1.3,0,0,1,60.15,46.63ZM198.24,38a1.32,1.32,0,0,1-1.05-.52c-1.15-1.55-2.39-3.07-3.66-4.53a1.3,1.3,0,1,1,1.95-1.71c1.32,1.5,2.6,3.08,3.8,4.68a1.3,1.3,0,0,1-.27,1.82A1.23,1.23,0,0,1,198.24,38Zm-130-3.14a1.3,1.3,0,0,1-1-2.13c1.27-1.54,2.63-3,4-4.48a1.3,1.3,0,0,1,1.87,1.81c-1.35,1.39-2.66,2.85-3.89,4.33A1.3,1.3,0,0,1,68.22,34.85Zm120.45-7.46a1.29,1.29,0,0,1-.88-.35c-1.42-1.31-2.92-2.58-4.44-3.79a1.3,1.3,0,0,1,1.62-2c1.57,1.25,3.11,2.57,4.58,3.92a1.3,1.3,0,0,1,.07,1.84A1.27,1.27,0,0,1,188.67,27.39ZM78.31,24.75a1.33,1.33,0,0,1-1-.46,1.29,1.29,0,0,1,.17-1.83c1.52-1.28,3.13-2.52,4.75-3.69a1.3,1.3,0,1,1,1.52,2.11c-1.58,1.14-3.13,2.34-4.61,3.57A1.3,1.3,0,0,1,78.31,24.75Zm99-6.08a1.3,1.3,0,0,1-.7-.21c-1.63-1-3.32-2-5-3a1.3,1.3,0,1,1,1.23-2.28c1.77.95,3.52,2,5.2,3a1.31,1.31,0,0,1,.39,1.8A1.27,1.27,0,0,1,177.35,18.67ZM90,16.61a1.3,1.3,0,0,1-.64-2.43c1.73-1,3.52-1.93,5.33-2.8a1.3,1.3,0,0,1,1.12,2.35c-1.74.84-3.48,1.75-5.16,2.71A1.4,1.4,0,0,1,90,16.61Zm74.65-4.55a1.24,1.24,0,0,1-.5-.1c-1.79-.75-3.63-1.44-5.46-2.05a1.31,1.31,0,0,1-.82-1.65,1.29,1.29,0,0,1,1.64-.82c1.9.64,3.79,1.35,5.64,2.12a1.3,1.3,0,0,1-.5,2.5ZM103,10.62a1.32,1.32,0,0,1-1.23-.86,1.3,1.3,0,0,1,.79-1.66c1.87-.68,3.8-1.3,5.72-1.85A1.3,1.3,0,0,1,109,8.76c-1.86.52-3.73,1.13-5.55,1.78A1.17,1.17,0,0,1,103,10.62Zm48.08-2.9a1.36,1.36,0,0,1-.29,0c-1.88-.43-3.81-.8-5.73-1.1A1.3,1.3,0,0,1,145.45,4c2,.31,4,.69,5.91,1.13a1.3,1.3,0,0,1-.28,2.57Zm-34.29-.79a1.3,1.3,0,0,1-.23-2.58c2-.35,4-.64,6-.86a1.3,1.3,0,0,1,.28,2.59c-1.93.21-3.88.49-5.78.83Zm20.15-1.2h-.08c-1.62-.09-3.26-.13-4.87-.13h-1A1.3,1.3,0,1,1,131,3h1c1.67,0,3.36,0,5,.14a1.3,1.3,0,0,1-.07,2.6Z"></path><path class="cls-1" d="M196.36,128.13a1.27,1.27,0,0,1-.82-.29,1.3,1.3,0,0,1-.19-1.83c.61-.75,1.2-1.51,1.78-2.28a1.3,1.3,0,0,1,2.08,1.56c-.6.8-1.21,1.59-1.84,2.36A1.29,1.29,0,0,1,196.36,128.13Z"></path><path class="cls-1" d="M45.21,149.69a1.31,1.31,0,0,1-.57-.13c-1.79-.87-3.56-1.82-5.28-2.81a1.3,1.3,0,1,1,1.3-2.25c1.66,1,3.39,1.88,5.12,2.72a1.3,1.3,0,0,1-.57,2.47ZM33,142.4a1.34,1.34,0,0,1-.76-.24c-1.61-1.17-3.2-2.41-4.72-3.68a1.31,1.31,0,0,1-.16-1.84,1.29,1.29,0,0,1,1.83-.15c1.48,1.23,3,2.43,4.58,3.56A1.3,1.3,0,0,1,33,142.4Zm93.23-4.48a1.3,1.3,0,0,1-.6-2.45c1.77-.92,3.49-1.87,5.11-2.81a1.3,1.3,0,1,1,1.3,2.25c-1.65,1-3.4,1.92-5.21,2.86A1.3,1.3,0,0,1,126.25,137.92ZM22.3,133.1a1.33,1.33,0,0,1-.94-.39c-1.38-1.44-2.72-2.94-4-4.47a1.3,1.3,0,1,1,2-1.66c1.23,1.48,2.53,2.94,3.87,4.32a1.3,1.3,0,0,1-.94,2.2Zm116.13-2.48a1.3,1.3,0,0,1-.75-2.36c1.63-1.15,3.18-2.33,4.61-3.5a1.3,1.3,0,1,1,1.65,2c-1.48,1.22-3.09,2.44-4.77,3.62A1.3,1.3,0,0,1,138.43,130.62ZM13.43,122a1.3,1.3,0,0,1-1.09-.59c-1.1-1.66-2.14-3.39-3.1-5.13a1.3,1.3,0,0,1,2.28-1.25c.92,1.68,1.93,3.34,3,5a1.29,1.29,0,0,1-.37,1.8A1.26,1.26,0,0,1,13.43,122Zm135.74-.66a1.29,1.29,0,0,1-.95-2.18,52.09,52.09,0,0,0,3.67-4.42,1.31,1.31,0,0,1,1.82-.27,1.3,1.3,0,0,1,.27,1.82,53.78,53.78,0,0,1-3.85,4.64A1.33,1.33,0,0,1,149.17,121.37Zm8.13-11.59a1.25,1.25,0,0,1-.59-.14,1.29,1.29,0,0,1-.57-1.74,50.28,50.28,0,0,0,2.28-5.26,1.3,1.3,0,1,1,2.44.89,50.59,50.59,0,0,1-2.4,5.54A1.31,1.31,0,0,1,157.3,109.78ZM6.78,109.49a1.29,1.29,0,0,1-1.2-.8c-.76-1.85-1.46-3.74-2.06-5.63A1.3,1.3,0,1,1,6,102.27c.59,1.82,1.26,3.65,2,5.43a1.29,1.29,0,0,1-.71,1.69A1.23,1.23,0,0,1,6.78,109.49Zm155.1-13.1-.26,0a1.3,1.3,0,0,1-1-1.53c.37-1.83.67-3.75.88-5.7a1.3,1.3,0,0,1,2.59.28c-.23,2-.53,4-.92,5.94A1.31,1.31,0,0,1,161.88,96.39ZM2.67,95.92a1.29,1.29,0,0,1-1.27-1c-.39-2-.7-4-.92-5.92a1.29,1.29,0,0,1,1.14-1.44,1.29,1.29,0,0,1,1.44,1.14c.22,1.91.52,3.83.89,5.72a1.3,1.3,0,0,1-1,1.53ZM163.24,82.27a1.31,1.31,0,0,1-1.3-1.31v-.4c0-1.79-.07-3.6-.21-5.38a1.3,1.3,0,0,1,2.6-.19c.14,1.84.21,3.72.21,5.57V81A1.29,1.29,0,0,1,163.24,82.27ZM1.3,81.8A1.3,1.3,0,0,1,0,80.5c0-2,.08-4,.25-6a1.3,1.3,0,1,1,2.59.21c-.16,1.91-.24,3.85-.24,5.78A1.3,1.3,0,0,1,1.3,81.8ZM161.94,68.15a1.3,1.3,0,0,1-1.28-1.06c-.36-1.88-.8-3.77-1.32-5.63a1.3,1.3,0,1,1,2.5-.69c.54,1.92,1,3.88,1.38,5.83a1.3,1.3,0,0,1-1,1.52ZM2.7,67.69a1.15,1.15,0,0,1-.26,0,1.3,1.3,0,0,1-1-1.53c.39-1.95.86-3.91,1.41-5.83a1.3,1.3,0,1,1,2.5.72c-.53,1.85-1,3.74-1.36,5.62A1.3,1.3,0,0,1,2.7,67.69ZM157.9,54.55a1.28,1.28,0,0,1-1.2-.81c-.72-1.77-1.53-3.55-2.4-5.26a1.3,1.3,0,1,1,2.33-1.17c.89,1.78,1.73,3.61,2.48,5.45a1.3,1.3,0,0,1-.72,1.69A1.19,1.19,0,0,1,157.9,54.55ZM6.82,54.11a1.23,1.23,0,0,1-.49-.1,1.29,1.29,0,0,1-.71-1.69c.76-1.84,1.61-3.67,2.52-5.45a1.3,1.3,0,1,1,2.31,1.19C9.58,49.77,8.76,51.54,8,53.31A1.29,1.29,0,0,1,6.82,54.11ZM151.32,42a1.3,1.3,0,0,1-1.09-.59c-1-1.61-2.18-3.2-3.35-4.72a1.3,1.3,0,1,1,2.06-1.59c1.22,1.58,2.38,3.23,3.46,4.89a1.29,1.29,0,0,1-.37,1.8A1.33,1.33,0,0,1,151.32,42Zm-137.83-.4a1.3,1.3,0,0,1-1.08-2c1.09-1.65,2.26-3.28,3.49-4.86a1.3,1.3,0,1,1,2,1.59c-1.18,1.53-2.32,3.11-3.37,4.71A1.33,1.33,0,0,1,13.49,41.59Zm129-10.72a1.26,1.26,0,0,1-.94-.4c-1.33-1.39-2.73-2.75-4.16-4a1.3,1.3,0,1,1,1.74-1.93c1.48,1.33,2.93,2.74,4.3,4.17a1.31,1.31,0,0,1-.05,1.84A1.28,1.28,0,0,1,142.5,30.87ZM22.38,30.53a1.26,1.26,0,0,1-.9-.37,1.29,1.29,0,0,1,0-1.83c1.39-1.43,2.84-2.83,4.32-4.15a1.3,1.3,0,1,1,1.73,1.94c-1.43,1.28-2.84,2.63-4.18,4A1.26,1.26,0,0,1,22.38,30.53Zm109.43-9a1.28,1.28,0,0,1-.76-.25c-1.56-1.13-3.18-2.23-4.81-3.25a1.3,1.3,0,1,1,1.37-2.2c1.69,1.05,3.36,2.18,5,3.35a1.3,1.3,0,0,1-.77,2.35Zm-98.7-.27a1.31,1.31,0,0,1-1.06-.54,1.29,1.29,0,0,1,.3-1.81c1.61-1.16,3.28-2.28,5-3.32a1.3,1.3,0,1,1,1.36,2.21c-1.63,1-3.25,2.09-4.81,3.21A1.28,1.28,0,0,1,33.11,21.25Zm86.54-7.07a1.31,1.31,0,0,1-.57-.13c-1.73-.85-3.51-1.65-5.29-2.37a1.3,1.3,0,1,1,1-2.41c1.84.75,3.67,1.57,5.46,2.45a1.3,1.3,0,0,1-.58,2.46ZM45.29,14a1.3,1.3,0,0,1-.56-2.47c1.78-.87,3.62-1.68,5.47-2.42a1.3,1.3,0,0,1,1,2.42c-1.8.71-3.58,1.5-5.31,2.34A1.44,1.44,0,0,1,45.29,14Zm61.14-5a1.19,1.19,0,0,1-.37-.06c-1.84-.54-3.73-1-5.62-1.44a1.29,1.29,0,0,1-1-1.54A1.31,1.31,0,0,1,101,5c2,.43,3.9.93,5.79,1.49A1.3,1.3,0,0,1,106.43,9ZM58.55,8.91a1.3,1.3,0,0,1-.36-2.55c1.9-.55,3.86-1,5.8-1.45a1.3,1.3,0,1,1,.54,2.54c-1.88.4-3.77.88-5.62,1.41A1.12,1.12,0,0,1,58.55,8.91Zm34-2.72h-.15c-1.91-.22-3.85-.39-5.78-.49a1.28,1.28,0,0,1-1.23-1.36A1.26,1.26,0,0,1,86.72,3.1c2,.1,4,.27,6,.5a1.3,1.3,0,0,1-.16,2.59Zm-20-.05a1.3,1.3,0,0,1-.15-2.59c2-.23,4-.38,6-.47a1.29,1.29,0,0,1,1.36,1.24A1.3,1.3,0,0,1,78.4,5.67c-1.93.09-3.88.24-5.79.46Z"></path><path class="cls-2" d="M206.89,96.26a1.08,1.08,0,0,1-.61-.2c-.73-.54-.57-.9.69-3.7.88-2,3.12-7,3.1-8.54H131.16a10.49,10.49,0,0,1-10.48-10.48V37.89A10.49,10.49,0,0,1,131.16,27.4h98.16A10.49,10.49,0,0,1,239.8,37.89V73.34a10.49,10.49,0,0,1-10.48,10.48H223.7c-1.27.4-7.77,5.62-11.28,8.44C207.44,96.26,207.4,96.26,206.89,96.26Z"></path><path d="M229.32,28.39a9.49,9.49,0,0,1,9.49,9.5V73.34a9.48,9.48,0,0,1-9.49,9.48h-5.69c-1.66,0-16.19,12.44-16.74,12.44-.32-.23,6.17-12.44,3.53-12.44H131.16a9.48,9.48,0,0,1-9.49-9.48V37.89a9.49,9.49,0,0,1,9.49-9.5Zm0-2H131.16a11.5,11.5,0,0,0-11.48,11.49V73.34a11.49,11.49,0,0,0,11.48,11.48h77.73A66.21,66.21,0,0,1,206.06,92c-.33.73-.61,1.36-.8,1.81-.26.63-.88,2.13.42,3.1a2.1,2.1,0,0,0,1.21.39c.9,0,.9,0,6.15-4.21,3.28-2.63,9.29-7.46,10.87-8.22h5.41A11.49,11.49,0,0,0,240.8,73.34V37.89A11.5,11.5,0,0,0,229.32,26.4Z"></path><path class="cls-2" d="M84.36,47.41a1,1,0,0,1-.85-.47c-.31-.5-.31-.5.74-2.66a65.69,65.69,0,0,0,3.52-8.12h-4.9A10.5,10.5,0,0,1,72.38,25.68V11.48A10.5,10.5,0,0,1,82.87,1H181a10.49,10.49,0,0,1,10.48,10.48v14.2A10.49,10.49,0,0,1,181,36.16H101.77c-1.08,0-6.77,3.45-16.7,11l-.11.08A1,1,0,0,1,84.36,47.41Z"></path><path d="M181,2a9.48,9.48,0,0,1,9.48,9.49v14.2A9.47,9.47,0,0,1,181,35.16H101.77c-2.64,0-17.1,11-17.4,11.25-.18,0,5.84-11.25,4.19-11.25H82.87a9.48,9.48,0,0,1-9.49-9.48V11.48A9.49,9.49,0,0,1,82.87,2Zm0-2H82.87A11.49,11.49,0,0,0,71.39,11.48v14.2A11.49,11.49,0,0,0,82.87,37.16h3.52c-.79,2.09-2.4,5.38-3,6.68-1,2.15-1.29,2.66-.68,3.63a2,2,0,0,0,2.89.54l.11-.08c8.86-6.71,14.82-10.48,16.17-10.77H181a11.49,11.49,0,0,0,11.48-11.48V11.48A11.49,11.49,0,0,0,181,0Z"></path><path class="cls-1" d="M161.83,22.68c-2.4,0-3.82-1.63-5.07-3.07s-2.47-2.81-4.64-2.88c-2-.07-2.87,1.09-4,2.54s-2.64,3.41-5.65,3.41-4.15-1.84-5.07-3.32-1.63-2.63-4-2.63-3,1-3.94,2.46-2.36,3.49-6,3.49-4.8-1.85-5.85-3.32-1.86-2.63-4.65-2.63-3.32,1-4.22,2.45-2.21,3.5-6.21,3.5-5.22-2-6.13-3.62c-.8-1.41-1.37-2.35-3.7-2.31a7.08,7.08,0,0,0-7,5.14,1,1,0,0,1-2-.5,9.11,9.11,0,0,1,9-6.72h.13c3.5,0,4.55,1.86,5.41,3.36s1.46,2.57,4.32,2.57,3.56-1.12,4.46-2.53a6.11,6.11,0,0,1,6-3.42,6.82,6.82,0,0,1,6.35,3.5c1,1.42,1.73,2.45,4.15,2.45s3.27-1.14,4.24-2.58,2.28-3.37,5.66-3.37c3.53,0,4.77,2,5.77,3.61.87,1.41,1.45,2.34,3.3,2.34s2.88-1.15,4-2.61,2.69-3.41,5.7-3.34,4.78,2,6.14,3.59,2.13,2.36,3.51,2.36,1.86-.79,2.83-2.19c1.16-1.68,2.6-3.76,6.09-3.76,6.47,0,9.29,6.28,9.41,6.55a1,1,0,0,1-1.9.84c-.1-.22-2.42-5.31-7.51-5.31-2.4,0-3.32,1.33-4.38,2.86S164.24,22.68,161.83,22.68Z"></path><path class="cls-1" d="M133,54.51a1,1,0,0,1-.25,0,1,1,0,0,1-.76-1.26,9.09,9.09,0,0,1,9-6.69h.14c4.85,0,8.25,3.36,9.75,5.21,1.58-1.84,5.19-5.24,10.4-5.24s8.94,3.46,10.51,5.3c1.59-1.82,5.22-5.3,9.89-5.3s7.77,3.38,9.17,5.25c1.66-1.81,5.34-5.25,9.39-5.25h.21c4.1.12,7.85,3.52,9.53,5.28,1.4-1.86,4.57-5.28,9-5.28,6.46,0,9.29,6.27,9.4,6.53a1,1,0,0,1-.53,1.37,1,1,0,0,1-1.37-.53c-.1-.23-2.42-5.29-7.5-5.29-4.8,0-8,5.36-8,5.42a1.06,1.06,0,0,1-.82.51,1,1,0,0,1-.89-.39s-4.43-5.41-8.89-5.54-8.77,5.47-8.82,5.52a1,1,0,0,1-.89.41,1.07,1.07,0,0,1-.84-.53s-3.13-5.4-8.16-5.4-9,5.44-9,5.49a1,1,0,0,1-.86.44,1,1,0,0,1-.85-.46s-3.76-5.47-9.64-5.47S151.72,54,151.69,54a1,1,0,0,1-1.75,0c0-.05-3.47-5.41-8.86-5.41H141a7,7,0,0,0-7,5.11A1,1,0,0,1,133,54.51Z"></path><path class="cls-2" d="M150.92,64.51s-21,5.6-24.35,16.68,8,17.47,8,17.47.21,5.51-7.12,7.66-11.76,2.85-12.41,6,.48,9.17.48,9.17-4.72,4-5.3,8.69a11.75,11.75,0,0,0,2.29,8.22s8.8-13.8,11.39-16.2,11.77-6.72,11.77-6.72l6.14-9.6-5.43-14.51L139,80.32s8.86-10.92,9.41-10.91S150.92,64.51,150.92,64.51Z"></path><path class="cls-3" d="M112.82,137.86s-1.5-5.94.4-8.93a12.59,12.59,0,0,1,5.29-5s-2.87-6.81,4.74-11.38,9.85-6.09,11.23-7.75a23.16,23.16,0,0,0,2.68-4.9S123.45,90.47,133,77.4c7-9.66,23.89-16.88,35.4-11.7S184.52,78,183.32,84.19s-6.59,14.21-3.87,19c4.41,7.72,22.36,17.14,22.68,23.79a35.64,35.64,0,0,1-2.37,13.28s-11.11-16.57-17.15-18.65-20.08-.16-22.6-6.64,1.26-14.78,1.26-14.78,5.07,5,12.33-1.5,2-12-.08-13.28c-3.82-2.35-10,1.74-10,1.74s-8.38-1.35-12.8-5.61-4.66-7.91-4.66-7.91-9.36,11.63-8.3,19.13c1.89,13.4,12.25,11.86,12.25,11.86s0,10.87-3.16,12.4-5.34,1.52-10,1.11-10.81,2.44-13.44,5.06S112.82,137.86,112.82,137.86Z"></path><path class="cls-4" d="M163.17,87.43s-8.92-2.54-11.94-5.45a38.05,38.05,0,0,1-5.69-7.9s-6.53,7.86-7.11,14.78,1,12,5.14,14.7c2.42,1.6,6.64.79,6.64.79s-.13,12.84-4.83,13.51a94.87,94.87,0,0,1-12.8.4s-2.24,9.84,4.11,12.64,20.48,8,34.86-.47S183.48,122,183.48,122a31.84,31.84,0,0,0-10.2-2.21c-6.64-.53-13-1-13.27-4s.71-16,.71-16-2.22-3.42-1-6.48A26.52,26.52,0,0,1,163.17,87.43Z"></path><path class="cls-5" d="M33.27,8.32H64A13.87,13.87,0,0,1,77.89,22.18V79.73A13.87,13.87,0,0,1,64,93.6H33.27A13.87,13.87,0,0,1,19.4,79.73V22.18A13.87,13.87,0,0,1,33.27,8.32Z"></path><path class="cls-1" d="M104.64,55.71a1,1,0,0,1-.73-1.77l4.58-4.59a1.05,1.05,0,0,1,1.47,0,1,1,0,0,1,0,1.47l-4.58,4.59A1.06,1.06,0,0,1,104.64,55.71Z"></path><path class="cls-1" d="M109.22,55.71a1,1,0,0,1-.73-.3l-4.58-4.59a1,1,0,0,1,0-1.47,1.05,1.05,0,0,1,1.47,0L110,53.94a1,1,0,0,1,0,1.47A1,1,0,0,1,109.22,55.71Z"></path><path class="cls-6" d="M121,158.8l-13.91-.94-1-2.45S120.36,131,123.1,127.9c5-5.69,9.56-6.88,9.56-6.88a6.8,6.8,0,0,0,1.5,7.36c4.49,4.34,15.5,10.85,31.69,4.18s18-10,18-10a33.08,33.08,0,0,1,10.35,10c4.39,6.72,10.28,16.19,10.59,17s1.57,4.12-1.11,4.74-24.66,2.05-24.66,2.05l1.27,2.69s-3.76,6.49-2.77,9.25a33.32,33.32,0,0,0,1.58,3.87S157.88,171.83,154,169s-4.17-4.29-5.53-8.62-3-10.34-5.54-13.27-5.3-1.76-4.82-.16,2.17,3.28,3.16,5.06a20.35,20.35,0,0,1,1.58,4.82s-6.57-4.49-8.53-2.76a3.88,3.88,0,0,0-1.5,3.79,3.16,3.16,0,0,0-1.58,1.34,15.9,15.9,0,0,0-1.35,2.77s-3.86,1.33-2.45,3.24c1.82,2.45,6.6,1.17,7.59,2.6s3.81,10.46,8.46,12.89,32.89,8,36.28,8.61,14.54,2.61,14.54,2.61l-54,.71s1.81-.08,2.69-3.08,1.71-5.91.4-6.32-19.84-.4-19.84-.4,0-15.58-.47-17.7a12.58,12.58,0,0,0-.4-2.14,52.92,52.92,0,0,1,2.92-14.62,102.56,102.56,0,0,1,6-12.09c-.31-.9-6.88,5.2-9.4,11.77A24.14,24.14,0,0,0,121,158.8Z"></path><path class="cls-2" d="M97.1,132a1,1,0,0,1-.6-.2l-.11-.08c-9.93-7.52-15.62-10.95-16.7-11H38.21a10.49,10.49,0,0,1-10.48-10.48V74.88a10.5,10.5,0,0,1,10.48-10.5H98.59a10.51,10.51,0,0,1,10.49,10.5v35.37a10.5,10.5,0,0,1-10.49,10.48h-4.9a66.35,66.35,0,0,0,3.52,8.12c1.05,2.16,1.05,2.16.74,2.66A1,1,0,0,1,97.1,132Z"></path><path class="cls-1" d="M98.59,65.38a9.49,9.49,0,0,1,9.49,9.5v35.37a9.48,9.48,0,0,1-9.49,9.48H92.9c-1.65,0,4.37,11.25,4.2,11.25-.31-.23-14.77-11.25-17.41-11.25H38.21a9.47,9.47,0,0,1-9.48-9.48V74.88a9.49,9.49,0,0,1,9.48-9.5Zm0-2H38.21A11.5,11.5,0,0,0,26.73,74.88v35.37a11.49,11.49,0,0,0,11.48,11.48H79.62c1.35.29,7.31,4.06,16.17,10.77l.11.08a2,2,0,0,0,2.89-.54c.61-1,.39-1.43-.69-3.63-.63-1.3-2.24-4.6-3-6.68h3.52a11.49,11.49,0,0,0,11.48-11.48V74.88A11.5,11.5,0,0,0,98.59,63.39Z"></path><path class="cls-4" d="M45.32,40.41c1.3.38,2.88-2.7,3-5.54S48,23.23,51.09,24.05s7.09,5,12.81,3.32,4.66-1.82,4.66-1.82.72,9.21-.55,14.38-2.8,11.86-8.46,13-6.24.24-6.24.24-1,3.73.07,5.06a7.62,7.62,0,0,0,1.51,1.58s-1.56,6.3-7.67,5.45S39.87,58,39.87,58a7.8,7.8,0,0,0,1.9-5.77C41.66,48.37,41.53,42,41.53,42s-7.39-3.37-4.19-6.88c1.51-1.65,3.29-1.91,4.74-.16C43.71,36.93,44.63,40.2,45.32,40.41Z"></path><path class="cls-7" d="M39.08,58.27s3.47,7.25,9.48,6.8,6.56-4.43,6.56-4.43a32.27,32.27,0,0,1,10.36,1.58c5.7,1.82,9.84,3.47,10.83,5.06a9.48,9.48,0,0,1,1.18,2.45l-.24,12.09s-1.46,8-6.32,9.8A25.6,25.6,0,0,1,62,93.28H27.46a13.62,13.62,0,0,1-10-10.51c-2.17-9.07.15-13.81-.15-14.07s1.91-5.32,6.48-6.48,10.58-2.28,12.33-2.92S39.08,58.27,39.08,58.27Z"></path><path class="cls-7" d="M71.19,19.79a9.74,9.74,0,0,1,2.52-.08c1.55,1.14-.66,2.81-1.56,3.64C69.28,26,65.55,28.4,60,28a15.86,15.86,0,0,1-5-1.39c-1-.46-3.34-2.21-4.42-1.91-.81.23-1.08,2.8-1.21,4.08-.38,3.71-.39,6-1.22,9.35-.27,1.11-.77,3.05-2.08,3.12-.94.06-1.68-.87-2.08-1.56-1-1.81-1.62-4.77-3.64-5.28a2.33,2.33,0,0,0-2.94,1.47c-.61,3.46,3.36,4.4,5,5.46.27.44-.15.63-.17,1C43,47.75,43,55,40.34,58.18c.75,4.22,5.94,8,10.75,5.63a8.72,8.72,0,0,0,3.12-3.12C53.79,60,53,59.84,52.56,59a7.61,7.61,0,0,1,.18-5.55,20.88,20.88,0,0,1-6.5-4.67c-.38-.4-1.64-1.74-.7-2.26s2,1.28,2.34,1.65c2,2,4.52,4.11,8.06,4.42,6,.52,8.72-4.35,10.23-8.58A40.12,40.12,0,0,0,68,33.66c-4.35-.2-7.38,4-6,8.4.16.5.83,1.64,0,1.91-1.21.4-1.81-2.41-1.91-3.38A7.46,7.46,0,0,1,68,32.1c.42-.8-.84-5.26.52-5.37s.74,4.27.95,5.63c.58.44,1.25.68,2,1.21.51.37,1.63,1.16,1,1.82-.86.84-2.06-1.28-3-1.3-.39,7.08-2.39,14.23-6.59,17.85a9.65,9.65,0,0,1-9,1.73A8,8,0,0,0,54,58.18c.71,1.45,3.33,1.6,5.28,1.91a59.93,59.93,0,0,1,11.18,3.12c3.36,1.16,6,2.16,7,5.63.23.78.91,3.09-.17,3.21-.92.09-.83-1.25-1-2.08-.8-3.15-3-4.11-6.07-5.2A69.49,69.49,0,0,0,55.77,61c-.67.76-1,1.55-1.56,2.25-2.81,3.26-8.84,3.53-12.22.61a11,11,0,0,1-2.94-4.85C33.73,62,25.35,60.8,21,64.68a12.91,12.91,0,0,0-2.08,2.6c-.58.91-.84,2.09-1.73,3,.05-.87-.53-1.69-.44-2.52a6.82,6.82,0,0,1,1.48-2.42,12.51,12.51,0,0,1,7-4.6c4-1.18,9.19-1.21,12.47-2.94,4.17-2.2,3-9.59,3.3-15.43-3.18-.72-6.87-4.79-4.33-8.32-1.63-3.3-2.79-6.17-2.52-10s2.73-7.19,5.72-9.62A20.66,20.66,0,0,1,51.09,10a17.36,17.36,0,0,1,9.7,2c2,1.05,3.47,2.65,5.46,3.46a5,5,0,0,0,1.3.35c1.86.18,6-2.09,6,.69C73.54,17.91,71.47,18.68,71.19,19.79Zm-3.38-2.42c-2.71-.05-4.75-2.15-6.93-3.56a14.9,14.9,0,0,0-8.23-2.33,18.74,18.74,0,0,0-11.09,3.63c-2.72,2-5.47,4.94-5.81,9-.29,3.56,1,6.35,2.25,9,5.41-1.55,5.88,4,8,6.58a27.3,27.3,0,0,0,1.56-7.45c.29-2.88.19-6,1.21-7.88,1.32-2.39,4.23-.46,6.06.43a16.52,16.52,0,0,0,4.34,1.56c5.45.89,9.4-1.89,12.13-4.25.34-.29.91-.69.78-.95-1.24-.07-3.24.69-3.38-.52-.08-.73,1.88-2.58,2.34-3.12.27-.31.85-.64.61-.95A17.53,17.53,0,0,1,67.81,17.37Z"></path><path class="cls-7" d="M54.38,28.89a6.53,6.53,0,0,1,3.12.52c.47.21,2,.89,1.73,1.74s-1.19.18-1.73-.09a5.41,5.41,0,0,0-5.46.26c-.71.4-1.59.79-1.82.09-.28-.88,1.21-1.51,1.65-1.74A6.41,6.41,0,0,1,54.38,28.89Z"></path><path class="cls-7" d="M54.73,33.75c1.44-.41,1.3,1,1,2.25-.22,1-.29,2.35-1.39,2.25C52.81,38.11,53.71,34,54.73,33.75Z"></path><path class="cls-7" d="M65.39,35.65c2.51-.72.62,5.69-1.13,4.42C63.34,39.4,64.6,35.88,65.39,35.65Z"></path><path class="cls-7" d="M40,35.91c.62-.2,1.17.57,1.82,1.21s2.14,2.06.6,2.26c-.63.08-1.1-.76-1.64-1.3C40.5,37.8,38.61,36.36,40,35.91Z"></path><path class="cls-7" d="M52,43.88c-.2,1.9,1,2.75,2.34,3.56.72.42,1.61.66,1.56,1.3-.09,1.19-1.9.26-2.51-.09a6.25,6.25,0,0,1-2.77-2.95c-.48-1.35-.25-3.82,1.73-3.29,1.12.3,2.33,1.73,3.9,2.6a10.41,10.41,0,0,0,2.34,1c1.13.32,2.14.45,2,1.22-.19,1-2,.3-2.77.08C55.16,46.47,54,45.24,52,43.88Z"></path><path class="cls-7" d="M177.69,171.7a10.3,10.3,0,0,1-1.21-3.73c-.09-3.25,2.16-6.21,3.2-8.49-.44-.54-.6-1.33-1.12-2-.35-.44-1.15-.57-1-1.3.15-1.12,5.38-.88,6.67-1,5.1-.3,9.41-.23,14.47-.69,1.86-.17,5.09-.43,5.63-1.91.47-1.29-.81-3.54-1.39-4.68a115.3,115.3,0,0,0-7.1-11.52c-3.53-5.34-6.43-9.8-11.78-13.09-6.7,5-14.44,10.24-24.87,12.14a36.25,36.25,0,0,1-16.47-.87c-4.41-1.43-8.9-3.66-10.83-7.63a11,11,0,0,1-.09-7.71c-4.28.82-7.23,3.51-9.7,6.41a81.38,81.38,0,0,0-6.5,9.54,196.46,196.46,0,0,0-10,18c-.39.79-1.23,2.22-1,2.95s2.16,1,3.29,1.12a77.58,77.58,0,0,0,12.48.69c-1.09-5.87,1.44-11.75,3.9-15.77.48-.79,1.77-3.37,2.77-2.68s-1,2.85-1.3,3.38c-1.89,3.08-4,7-4,12a28.06,28.06,0,0,0,1.29,6.75c1.6,6.38,1.16,15.07,1.82,22.19-.37.11-1.11-.08-1.73,0,0-1.84-.21-3.49-.17-5.37-1.17,1.48-1.81,3.5-2.86,5.11a9.65,9.65,0,0,1-1.82.08c1-1.91,2.16-4.19,3.29-6.32a11.15,11.15,0,0,0,1.13-2.08,19.34,19.34,0,0,0-.18-4.25c-.25-4.22-.59-8.18-1.73-11.43a101.06,101.06,0,0,1-11.35-.44c-4,8.35-7.69,17-11.52,25.48-.63,0-1.19.14-1.82.17,3.81-8.66,7.72-17.23,11.61-25.82-1.86-.53-4.1-.44-4.6-2.17s.79-3.82,1.48-5.2c2.25-4.47,5-9.28,7.28-13.17-1.37-1.78-2.93-3.55-3-6.32,0-4.69,3.59-7.64,5.63-10.32-1.32-3.65-1-8.56,1-10.74,2.18-2.38,6.33-3.62,9.88-5,3.73-1.48,6.85-3.13,8.23-6.58-3.08-2.56-5.6-4.8-7.28-8.15-2-3.94-1-8.53.87-12,3.43-6.33,9.72-11.11,17-13.78A37.42,37.42,0,0,1,157.07,63c10.1-.06,17,3.22,22.18,8.49a16.72,16.72,0,0,1,5,10.31c.28,3.74-.91,6.64-2,9.36-1,2.56-2.62,5.35-2.6,8.66,0,3.69,2.95,6.32,5.2,8.24,5.08,4.31,10.27,7.08,14.65,12.21a14.31,14.31,0,0,1,3.9,9.54,23.55,23.55,0,0,1-2.08,9.53,2,2,0,0,1-1,1c.85,1.47,2.07,3.19,3.12,5.11s2.21,3.83,2.43,5.81c.33,2.95-1.67,3.91-4.07,4.42,3.06,7,6.84,14.73,10,22.44,1.15,2.77,3.49,8.32,1.21,11.18s-8.09,2.94-13,2.94c-12.77,0-23.27-2.7-34-5-3.58-.78-7.23-1.51-10.83-2.17-7.56-1.38-14-2.95-17.07-8.92-1.34-2.65-2.43-7.51-4.59-8.32-1.31-.5-3.23-.16-4.68-.61s-2.7-1.05-2.69-2.6,1.33-1.92,2.43-2.51a7.09,7.09,0,0,1,3.12-4.42c-.18-3.24,2.83-5,5.63-4.68a9.13,9.13,0,0,1,4.51,2.51,12.31,12.31,0,0,0-2.34-4.24c-1-1.32-2.83-2.82-2.51-4.86a2.59,2.59,0,0,1,2.59-2.16,4.62,4.62,0,0,1,2.87,1.3c2.35,2.06,4.1,5.83,5.19,9.27,1.38,4.34,2,9.91,5.2,12.48,2.74,2.18,7.15,2.82,11.27,3.29C168.72,171.08,173,171.27,177.69,171.7Zm-7.8-86.14c-.54.13-1.23.56-1.65.52.42-6.41-.14-12.61-3.46-16.2a12.93,12.93,0,0,0-5-3.12,17.72,17.72,0,0,0-6.67-1.56,28.66,28.66,0,0,0-9.36,2.43,30.58,30.58,0,0,0-13.43,10.31c-2.23,3.11-4.34,7.62-2.6,11.87,1.33,3.25,4,5.55,6.5,7.8.48-.21.81-.63,1.39-.35.95.48,0,2.21-.44,3a12.14,12.14,0,0,1-1.56,2.77c-2.67,3.41-7.07,4.45-11.26,6.15-3.88,1.58-7.17,2.93-6.76,8.58.12,1.7,1,3.37.87,4.5-.13.77-1.24,1.44-1.82,2.08-1.68,1.84-4,4.69-3.9,7.8a7.22,7.22,0,0,0,2.08,4.51c3.8-5.88,6.22-11.17,11.61-15.6a15.8,15.8,0,0,1,9.88-3.72c4-.26,9.89,1,12.3-1s2.26-7.4,2.86-10.92c-7.05.23-11.18-4.33-12.22-9.88s.9-10.94,2.77-14.47a10.86,10.86,0,0,0,1-1.65c.09-.36-.23-1.06.08-1.3.07-.37.79-.08.87-.43.74-1,1.58-2.2,2.34-3.12a11.75,11.75,0,0,0,.78-1c-.08-.66-1.46-3,.09-3,1,0,1.29,2.29,1.56,3,2.66,6.63,7.22,10.46,14.81,12.3.84.21,3.27.29,3.21,1.39s-1.53.64-2.17.52a45.63,45.63,0,0,1-7.45-2.25c0,1.29-.79,3.21-2,3.2-2.27,0-.79-3.57.43-4.24-3.69-1.88-5.9-5.25-7.8-8.93a25.72,25.72,0,0,0-2.16,3.21c1.79,1.35,4.46,2.31,4,5.8a7.56,7.56,0,0,1-1.73,3.56c-.52.66-2,2.69-3,2.25-1.34-.64,1.15-2.55,1.65-3.21A6,6,0,0,0,146,83.57c-.16-2-2.12-2.52-3.29-3.55-2,3.72-4.06,7.75-3.81,13,.35,7.41,5.76,12.1,13.78,9.87,1-.28,3.51-1.73,3.64-.08.08,1.19-1.41,1.31-2.17,1.56a14.26,14.26,0,0,1-3,.78c-.71,4.67-.48,9.48-3.12,12.13-2.91,2.91-9.07,1.3-14.39,1.73-.91,2.13-1.23,5.33-.17,7.37,1.89,3.64,6.2,5.58,10.4,6.84a34.52,34.52,0,0,0,15.34.52c8.9-1.7,16-5.77,22-10.31.4-.3,1.08-.53,1-.87-3-1.27-6.68-1.59-10.57-1.82-3.66-.21-7.92-.42-10.31-2.16-3.11-2.25-2.69-8.2-2-13.09.21-1.44.55-6.52,2-6.32,1,.13.51,1.58.25,2.86a41.35,41.35,0,0,0-1.12,11.09c.34,4.65,3.74,5.3,8.14,5.72,7.08.67,13.26.84,17.85,4,6,4.12,8.76,10.28,13.09,16,1.13-3.38,2.23-6,2-9.79-.39-6.39-5.84-10.2-10.57-13.87-2.28-1.76-4.74-3.41-6.93-5.28s-4.49-4.12-5.55-6.76a8.72,8.72,0,0,1-.6-4.16c.47-6.52,6.33-12.28,4-19.76-1.95-6.21-6.75-9.55-12.65-12.3-.34.18.11.2.17.26.42.4.85.72,1.22,1.12C174,72,174.6,79.7,172.84,86c-.47-.26-1.13-.32-1.56-.61,1.12-4.55,1.22-9.77-.35-13.34a10.69,10.69,0,0,0-3.47-4.25A12.35,12.35,0,0,0,159.84,65C167.79,67.22,170.66,74.94,169.89,85.56Zm24.87,87.26c1.28.07,5.06-.17,4.94,1.13-.08.87-1.63.63-2,.61-10.1-.55-19.21-1.14-28.77-2-6.83-.61-14.05-1.21-17.68-4.68-1.8-1.71-2.77-4.6-3.64-7.54a52.67,52.67,0,0,0-2.77-8.4c-1.11-2.34-2.78-5.84-5.12-6.07h-.08c-2.2.3.21,3,.61,3.47a15.6,15.6,0,0,1,3.11,5.37c.46,1.36.53,2.66.78,3.47a30.45,30.45,0,0,0,1.65,2.95c.3.57,1.73,2.85.35,3-1,.13-1.75-2.5-2.26-3.38-1.38-2.44-3.52-5.52-6.24-6.07-2-.4-4,.53-4.15,2.52,4.78-.18,8.05,3,10.22,6,.48.65,2,2.6.69,2.94-.85.23-1.54-1.19-2.08-1.91-1.68-2.23-3.86-4.63-6.75-5.19-2.62-.51-4.23.66-4.94,2.51,5.69-.89,8.83,2,10.83,5.37.37.63,1.7,2.8.09,2.77-.73,0-1.2-1.52-1.65-2.25a11.59,11.59,0,0,0-1.82-2.17c-2.18-2.13-7.45-3.42-10.05-.69.6,1.74,4.06.92,6.06,1.56s3.12,3.09,3.82,4.77,1.14,3.15,1.9,4.59c3.1,5.85,10.18,6.83,17.59,8.23,11.05,2.1,20.75,4.8,32.5,6.24a73,73,0,0,0,12.22.52c3.71-.18,8.9-.29,10.05-2.86,1.23-2.74-1.31-7.51-2.08-9.36-3.21-7.7-6.63-15.29-10-22.27-6.44.55-13.37.61-20,1,2.92,5.27,6,10.37,9,15.52C190.83,172.68,192.76,172.71,194.76,172.82Zm-16.64-4.76c.08,1.31,1.13,3.47,2,3.81a15.15,15.15,0,0,0,3.56.26,20.71,20.71,0,0,0,3.55.17c-2.3-3.65-4.31-7.59-6.67-11.17C179.87,163.12,178,165.35,178.12,168.06Z"></path><path class="cls-7" d="M141.11,86.11c-.1-.57.75-3.44,1.83-3.67,3.09-.64.77,4.47-.43,4.68A1.24,1.24,0,0,1,141.11,86.11Z"></path><path class="cls-7" d="M149.53,94.05c-1.44.29-2.33.89-4.16,1-1.49.12-3.69.07-3.73-1,0-1.32,1.72-.61,2.69-.6,2.91,0,4.26-1.4,6.06-1.39,2.3,0,1,2.34.18,3.2a7.8,7.8,0,0,1-4,2.61c-.91.32-2.16.73-2.43,0-.41-1.17,1.83-1.46,2.78-1.91A6.63,6.63,0,0,0,149.53,94.05Z"></path><path class="cls-7" d="M125,192.49c.06.68-.73.83-1.3.61C124.08,192.84,124.62,192.75,125,192.49Z"></path><path class="cls-7" d="M169.09,85s.82-11.89-4.26-16.28a16.81,16.81,0,0,0-10.12-4.35,28.42,28.42,0,0,1,7.75.16c3,.71,3.71,1.43,3.71,1.43s6,3.66,6.64,8.29-.95,11.15-.95,11.15Z"></path><path d="M171.86,86.37h-.14L169,86a1,1,0,0,1-.85-1c0-.12.72-11.46-3.92-15.46a16,16,0,0,0-9.47-4.11,1,1,0,0,1-.11-2c.07,0,1.83-.21,3.92-.21a18.47,18.47,0,0,1,4.16.39,10.52,10.52,0,0,1,4.09,1.59c.74.48,6.32,4.16,7,9s-.9,11.26-1,11.53A1,1,0,0,1,171.86,86.37Zm-1.73-2.25,1,.14c.4-1.89,1.24-6.47.73-9.88-.6-4.13-6.12-7.56-6.17-7.6a1.33,1.33,0,0,1-.19-.14,9.58,9.58,0,0,0-3.23-1.16l-.5-.1A20.62,20.62,0,0,1,165.48,68C170.07,71.91,170.21,81.15,170.13,84.12Z"></path><path class="cls-7" d="M164.55,86.76c3.46-2.22,8.15-2.46,10.81.5,3.33,3.7,1.36,10.56-4.6,13.32-5.13,2.39-10.22.17-11-4.41C159.15,92.62,161.26,88.87,164.55,86.76Z"></path><path d="M166.59,102.55a7.54,7.54,0,0,1-7.81-6.21c-.65-3.81,1.45-8,5.23-10.42a11.48,11.48,0,0,1,6.09-1.85,7.93,7.93,0,0,1,6,2.52,7.82,7.82,0,0,1,1.68,6.89,11.58,11.58,0,0,1-6.6,8A10.93,10.93,0,0,1,166.59,102.55Zm3.51-16.49a9.43,9.43,0,0,0-5,1.54c-3.12,2-4.87,5.38-4.35,8.4a5.61,5.61,0,0,0,5.85,4.56,8.89,8.89,0,0,0,3.75-.88,9.58,9.58,0,0,0,5.49-6.59,5.87,5.87,0,0,0-1.21-5.16A5.94,5.94,0,0,0,170.1,86.06Z"></path><path class="cls-7" d="M168.94,84.59s1.46-11.25-3.88-15.65a20.5,20.5,0,0,0-12-4.35s5.5-2,8.54-1,3.32,1.11,3.32,1.11,7.94,5.3,8.37,10.91c.54,7-1.26,8.93-1.26,8.93Z"></path><path class="cls-2" d="M39.26,183H142.79a1.47,1.47,0,0,1,1.47,1.47l-.68,3.94c-.6,2-2,3.67-4,3.67H42.49c-2,0-3.55-1.67-4.19-3.74l-.51-3.87A1.47,1.47,0,0,1,39.26,183Z"></path><path d="M139.61,193.12H42.49c-2.29,0-4.31-1.75-5.14-4.45a.94.94,0,0,1,0-.16l-.51-3.87a.53.53,0,0,1,0-.13,2.47,2.47,0,0,1,2.47-2.46H142.79a2.46,2.46,0,0,1,2.46,2.46.91.91,0,0,1,0,.17l-.68,3.94a.27.27,0,0,1,0,.12C143.72,191.44,141.83,193.12,139.61,193.12Zm-100.33-5c.48,1.49,1.65,3,3.21,3h97.12c1.92,0,2.76-2.16,3-2.91l.65-3.77a.47.47,0,0,0-.47-.41H39.26a.47.47,0,0,0-.47.42Z"></path><path class="cls-2" d="M21.3,137.28l72,0a7,7,0,0,1,5.9,3.66l18,40c.91,2-2.19,5.8-4.55,5.79h-72a7,7,0,0,1-5.9-3.67l-18-40C15.83,141,18.94,137.28,21.3,137.28Z"></path><path d="M112.62,187.75l-72,0a7.93,7.93,0,0,1-6.81-4.25l-18-40a4.26,4.26,0,0,1,.7-4c1-1.58,2.89-3.18,4.77-3.18l72,0a7.93,7.93,0,0,1,6.81,4.25l18,40a4.32,4.32,0,0,1-.7,4C116.35,186.16,114.49,187.75,112.62,187.75ZM21.3,138.28c-.92,0-2.28,1-3.1,2.27a2.53,2.53,0,0,0-.55,2.1l18,40a6,6,0,0,0,5,3.08l72,0v0c.91,0,2.26-1,3.08-2.26a2.57,2.57,0,0,0,.56-2.13l-18-40a6,6,0,0,0-5-3.07Z"></path><path class="cls-6" d="M60.61,161.27c-3.93,0-5.75,2.63-4.07,5.77s6.23,5.64,10.16,5.59,5.76-2.62,4.08-5.76S64.54,161.22,60.61,161.27Z"></path><path d="M62.52,7.05A13.87,13.87,0,0,1,76.39,20.92V78.47A13.86,13.86,0,0,1,62.52,92.33H31.76A13.85,13.85,0,0,1,17.9,78.47V20.92A13.86,13.86,0,0,1,31.76,7.05Zm0-2H31.76A15.88,15.88,0,0,0,15.9,20.92V78.47A15.88,15.88,0,0,0,31.76,94.33H62.52A15.88,15.88,0,0,0,78.38,78.47V20.92A15.88,15.88,0,0,0,62.52,5.06Z"></path><path d="M148.59,111.19a13.13,13.13,0,0,1-3.7-.47.87.87,0,0,1-.56-1.09.86.86,0,0,1,1.08-.57,15.08,15.08,0,0,0,11.92-2.32c6.22-4.08,7.54-7.35,7.55-7.38a.87.87,0,0,1,1.63.6c-.06.16-1.45,3.78-8.23,8.23A17.53,17.53,0,0,1,148.59,111.19Z"></path><path class="cls-7" d="M143,111.38h-.37c-1.63-.13-2.77-1-2.77-2.11,0-.9.81-1.87,2.59-1.87l.37,0c1.63.13,2.76,1,2.76,2.11S144.5,111.38,143,111.38Z"></path><path d="M142.43,108.61h.27c.91.07,1.65.47,1.65.9s-.59.65-1.37.65h-.28c-.91-.07-1.64-.47-1.64-.9s.59-.65,1.37-.65Zm0-2.43c-2.49,0-3.8,1.55-3.8,3.08,0,1.78,1.6,3.14,3.88,3.32l.47,0c2.49,0,3.8-1.55,3.8-3.08,0-1.77-1.6-3.14-3.88-3.32l-.47,0Z"></path><path class="cls-1" d="M50.34,111.51a1,1,0,0,1-.73-.3,1,1,0,0,1,0-1.47l4.58-4.59a1.05,1.05,0,0,1,1.47,0,1,1,0,0,1,0,1.47l-4.58,4.59A1.06,1.06,0,0,1,50.34,111.51Z"></path><path class="cls-1" d="M54.93,111.51a1,1,0,0,1-.74-.3l-4.58-4.59a1,1,0,0,1,0-1.47,1.05,1.05,0,0,1,1.47,0l4.58,4.59a1,1,0,0,1-.73,1.77Z"></path><path class="cls-1" d="M43.89,109.2l2.55,4.33H41.33Z"></path><path d="M241.65,193.79H8.65a1,1,0,0,1-1-1,1.07,1.07,0,0,1,1-1.08h233a1,1,0,0,1,1,1A1.07,1.07,0,0,1,241.65,193.79Z"></path></g></g></svg>